<?xml version="1.0" encoding="UTF-8" standalone="no"?>
<!-- Created with Inkscape (http://www.inkscape.org/) -->

<svg
   xmlns:dc="http://purl.org/dc/elements/1.1/"
   xmlns:cc="http://creativecommons.org/ns#"
   xmlns:rdf="http://www.w3.org/1999/02/22-rdf-syntax-ns#"
   xmlns:svg="http://www.w3.org/2000/svg"
   xmlns="http://www.w3.org/2000/svg"
   xmlns:sodipodi="http://sodipodi.sourceforge.net/DTD/sodipodi-0.dtd"
   xmlns:inkscape="http://www.inkscape.org/namespaces/inkscape"
   id="svg2"
   version="1.1"
   inkscape:version="0.91 r"
   xml:space="preserve"
   width="201.79895mm"
   height="29.328604mm"
   viewBox="0 0 715.03561 103.92025"
   sodipodi:docname="logolink.svg"><metadata
     id="metadata8"><rdf:RDF><cc:Work
         rdf:about=""><dc:format>image/svg+xml</dc:format><dc:type
           rdf:resource="http://purl.org/dc/dcmitype/StillImage" /><dc:title></dc:title></cc:Work></rdf:RDF></metadata><defs
     id="defs6"><clipPath
       clipPathUnits="userSpaceOnUse"
       id="clipPath16"><path
         d="m 0,595.275 841.89,0 L 841.89,0 0,0 0,595.275 Z"
         id="path18"
         inkscape:connector-curvature="0" /></clipPath></defs><sodipodi:namedview
     pagecolor="#ffffff"
     bordercolor="#666666"
     borderopacity="1"
     objecttolerance="10"
     gridtolerance="10"
     guidetolerance="10"
     inkscape:pageopacity="0"
     inkscape:pageshadow="2"
     inkscape:window-width="1366"
     inkscape:window-height="743"
     id="namedview4"
     showgrid="false"
     inkscape:zoom="0.5778506"
     inkscape:cx="158.67393"
     inkscape:cy="-251.32285"
     inkscape:window-x="0"
     inkscape:window-y="25"
     inkscape:window-maximized="1"
     inkscape:current-layer="g10"
     fit-margin-top="0"
     fit-margin-left="0"
     fit-margin-right="0"
     fit-margin-bottom="0"
     units="mm" /><g
     id="g10"
     inkscape:groupmode="layer"
     inkscape:label="OPVK_hor_zakladni_logolink_CB_cz"
     transform="matrix(1.25,0,0,-1.25,-269.26247,428.068)"><g
       id="g4748"><g
         transform="translate(16,0)"
         id="g5746"><path
           inkscape:connector-curvature="0"
           id="path22"
           style="fill:#2d2c2e;fill-opacity:1;fill-rule:nonzero;stroke:none"
           d="m 226.20895,326.6545 1.107,3.618 -3.024,2.275 3.784,0.064 1.23,3.58 1.231,-3.578 3.785,-0.064 -3.025,-2.277 1.109,-3.619 -3.1,2.174 -3.097,-2.173 z m -0.079,-13.776 -5.142,3.605 -5.135,-3.602 1.835,5.998 -5.014,3.774 6.276,0.105 2.039,5.937 2.041,-5.934 6.276,-0.107 -5.016,-3.774 1.84,-6.002 z m 11.871,24.22 0.928,2.702 0.929,-2.7 2.855,-0.049 -2.282,-1.717 0.837,-2.73 -2.339,1.641 -2.337,-1.641 0.836,2.73 -2.282,1.716 2.855,0.048 z m 8.113,1.616 0.514,1.499 0.516,-1.498 1.585,-0.028 -1.267,-0.953 0.464,-1.514 -1.298,0.91 -1.296,-0.91 0.463,1.514 -1.266,0.953 1.585,0.027 z m 0.11,-54.483 c 2.163,1.831 3.245,4.196 3.245,7.092 0,2.198 -0.759,4.031 -2.27,5.498 -1.532,1.448 -3.821,2.526 -6.866,3.237 -4.567,0.995 -7.228,1.697 -7.979,2.108 -0.755,0.391 -1.13,1.025 -1.13,1.898 0,0.694 0.353,1.301 1.062,1.819 0.708,0.516 1.895,0.775 3.562,0.775 2.026,0 3.46,-0.518 4.301,-1.553 0.449,-0.572 0.727,-1.347 0.834,-2.329 l 7.654,0 c -0.343,3.585 -1.664,6.108 -3.969,7.569 -0.629,0.399 -1.313,0.739 -2.043,1.029 l 8.635,0 0,-5.37 4.325,0 0,-23.624 7.542,0 0,23.624 4.991,0 0,5.379 -4.991,0 0,2.461 c 0,0.572 0.192,1.094 0.576,1.568 0.384,0.472 1.081,0.695 2.091,0.669 1.009,-0.028 1.729,-0.04 2.158,-0.04 l 0,6.211 c -0.678,0.036 -1.213,0.063 -1.605,0.083 -0.392,0.017 -0.828,0.027 -1.309,0.027 -4.225,0 -6.888,-0.857 -7.99,-2.573 -1.049,-1.19 -1.573,-3.362 -1.573,-6.514 l 0,-1.892 -4.2,0 0,30.536 -51.865,0 0,-30.545 0.004,0 0,-10.902 c 0.316,1.661 0.965,2.997 1.959,4.002 1.083,1.097 2.607,1.645 4.574,1.645 1.807,0 3.321,-0.516 4.542,-1.551 1.222,-1.035 1.902,-2.552 2.042,-4.55 l -13.117,0 0,-5.1 21.045,0 c 0.038,2.53 -0.046,4.467 -0.251,5.815 -0.355,2.297 -1.13,4.316 -2.326,6.057 -1.327,1.972 -3.007,3.418 -5.044,4.333 -0.212,0.095 -0.44,0.165 -0.657,0.251 l 17.277,0 c -1.017,-0.451 -1.919,-1.031 -2.701,-1.744 -2.125,-1.937 -3.186,-4.254 -3.186,-6.95 0,-2.285 0.68,-4.036 2.04,-5.25 1.362,-1.232 3.702,-2.257 7.026,-3.073 4.614,-1.084 7.279,-1.849 7.994,-2.297 0.716,-0.447 1.074,-1.101 1.074,-1.96 0,-0.895 -0.445,-1.567 -1.334,-2.014 -0.89,-0.447 -2.087,-0.67 -3.596,-0.67 -2.567,0 -4.326,0.51 -5.277,1.533 -0.539,0.573 -0.89,1.541 -0.977,2.162 l -7.765,0 c -0.073,-2.276 1.027,-4.759 3.224,-6.706 2.198,-1.948 5.604,-2.923 10.217,-2.923 4.523,0 7.865,0.917 10.027,2.749" /><path
           inkscape:connector-curvature="0"
           id="path26"
           style="fill:#2d2c2e;fill-opacity:1;fill-rule:nonzero;stroke:none"
           d="m 217.24215,285.7023 c 1.681,1.787 2.625,3.546 2.83,5.367 l -7.809,0 c -0.456,-0.941 -0.98,-1.607 -1.575,-2.085 -1.089,-0.887 -2.505,-1.33 -4.246,-1.33 -1.644,0 -3.049,0.364 -4.217,1.098 -1.455,0.893 -2.39,2.292 -2.811,4.19 l 0,-10.05 c 2.096,-0.965 4.376,-1.45 6.842,-1.45 4.708,0 8.37,1.42 10.986,4.26" /><path
           inkscape:connector-curvature="0"
           id="path30"
           style="fill:#2d2c2e;fill-opacity:1;fill-rule:nonzero;stroke:none"
           d="m 276.79395,310.4767 c 0.524,0 1.164,-0.304 1.257,-1.304 l -2.524,0 c 0.092,0.815 0.5,1.304 1.267,1.304 m 2.862,-3.199 -1.675,0 c -0.128,-0.443 -0.593,-0.675 -1.047,-0.675 -1.315,0 -1.407,1.047 -1.454,1.512 l 4.246,0 0,0.291 c 0,2.827 -1.687,3.409 -2.908,3.409 -2.711,0 -2.967,-2.386 -2.967,-3.13 0,-2.548 1.338,-3.385 3.083,-3.385 1.059,0 2.292,0.489 2.722,1.978" /><path
           inkscape:connector-curvature="0"
           id="path34"
           style="fill:#2d2c2e;fill-opacity:1;fill-rule:nonzero;stroke:none"
           d="m 284.63765,311.6506 -1.314,-4.559 -0.023,0 -1.28,4.559 -1.815,0 2.222,-6.188 1.71,0 2.233,6.188 -1.733,0 z" /><path
           inkscape:connector-curvature="0"
           id="path38"
           style="fill:#2d2c2e;fill-opacity:1;fill-rule:nonzero;stroke:none"
           d="m 290.86425,310.1388 0,1.652 c -0.104,0.011 -0.209,0.023 -0.314,0.023 -0.988,0 -1.361,-0.605 -1.698,-1.233 l -0.023,0 0,1.07 -1.559,0 0,-6.188 1.629,0 0,3.222 c 0,0.686 0.232,1.477 1.5,1.477 0.151,0 0.326,0 0.465,-0.023" /><path
           inkscape:connector-curvature="0"
           id="path42"
           style="fill:#2d2c2e;fill-opacity:1;fill-rule:nonzero;stroke:none"
           d="m 294.61225,306.672 c -1.256,0 -1.489,1.094 -1.489,1.885 0,0.791 0.233,1.884 1.489,1.884 1.256,0 1.489,-1.093 1.489,-1.884 0,-0.791 -0.233,-1.885 -1.489,-1.885 m 0,5.142 c -1.664,0 -3.164,-1.024 -3.164,-3.257 0,-2.235 1.5,-3.257 3.164,-3.257 1.663,0 3.164,1.022 3.164,3.257 0,2.233 -1.501,3.257 -3.164,3.257" /><path
           inkscape:connector-curvature="0"
           id="path46"
           style="fill:#2d2c2e;fill-opacity:1;fill-rule:nonzero;stroke:none"
           d="m 301.82765,310.4064 c 1.036,0 1.385,-0.919 1.385,-1.896 0,-0.733 -0.291,-1.873 -1.338,-1.873 -1.035,0 -1.431,0.861 -1.431,1.779 0,0.989 0.268,1.99 1.384,1.99 m -1.314,-4.153 0.023,0 c 0.198,-0.337 0.605,-0.953 1.745,-0.953 1.838,0 2.606,1.628 2.606,3.326 0,2.14 -1.21,3.188 -2.571,3.188 -1.093,0 -1.547,-0.571 -1.85,-1.059 l -0.023,0 0,0.895 -1.559,0 0,-8.596 1.629,0 0,3.199 z" /><path
           inkscape:connector-curvature="0"
           id="path50"
           style="fill:#2d2c2e;fill-opacity:1;fill-rule:nonzero;stroke:none"
           d="m 311.31205,307.4279 c 0,2.281 -3.874,1.571 -3.874,2.548 0,0.267 0.117,0.605 1.001,0.605 0.884,0 1.023,-0.419 1.093,-0.814 l 1.594,0 c -0.128,1.745 -1.571,2.047 -2.781,2.047 -1.93,0 -2.5,-1.163 -2.5,-2.071 0,-2.315 3.838,-1.535 3.838,-2.57 0,-0.233 -0.197,-0.641 -1.035,-0.641 -1.024,0 -1.349,0.385 -1.349,0.908 l -1.676,0 c 0.047,-1.651 1.571,-2.14 2.978,-2.14 0.966,0 2.711,0.326 2.711,2.128" /><path
           inkscape:connector-curvature="0"
           id="path54"
           style="fill:#2d2c2e;fill-opacity:1;fill-rule:nonzero;stroke:none"
           d="m 312.54785,313.8146 0,-8.352 1.629,0 0,1.954 0.675,0.698 1.477,-2.652 1.954,0 -2.245,3.792 2.187,2.396 -2.001,0 -2.047,-2.349 0,4.513 -1.629,0 z" /><path
           inkscape:connector-curvature="0"
           id="path58"
           style="fill:#2d2c2e;fill-opacity:1;fill-rule:nonzero;stroke:none"
           d="m 319.54245,304.2765 c -0.139,0 -0.244,0.012 -0.314,0.022 l 0,-1.302 c 0.233,-0.011 0.512,-0.024 0.733,-0.024 1.419,0 1.629,0.303 2.396,2.595 l 2.129,6.084 -1.722,0 -1.268,-4.561 -0.023,0 -1.326,4.561 -1.815,0 2.28,-6.444 c -0.151,-0.849 -0.477,-0.931 -1.07,-0.931" /><path
           inkscape:connector-curvature="0"
           id="path62"
           style="fill:#2d2c2e;fill-opacity:1;fill-rule:nonzero;stroke:none"
           d="m 323.28855,314.1867 -1.792,0 -1.093,-1.697 1.175,0 1.71,1.697 z" /><path
           inkscape:connector-curvature="0"
           id="path66"
           style="fill:#2d2c2e;fill-opacity:1;fill-rule:nonzero;stroke:none"
           d="m 276.40575,294.4777 c -1.367,0 -1.499,0.707 -1.532,1.145 l -0.937,0 c 0.033,-0.674 0.198,-1.959 2.48,-1.959 1.301,0 2.282,0.696 2.282,1.852 0,0.76 -0.419,1.189 -1.621,1.477 l -0.97,0.236 c -0.749,0.182 -1.047,0.289 -1.047,0.75 0,0.696 0.849,0.792 1.147,0.792 1.223,0 1.355,-0.589 1.366,-0.942 l 0.937,0 c 0,0.278 -0.143,1.754 -2.204,1.754 -1.136,0 -2.183,-0.555 -2.183,-1.787 0,-0.77 0.529,-1.167 1.334,-1.359 l 1.124,-0.269 c 0.827,-0.202 1.147,-0.352 1.147,-0.802 0,-0.62 -0.629,-0.888 -1.323,-0.888" /><path
           inkscape:connector-curvature="0"
           id="path70"
           style="fill:#2d2c2e;fill-opacity:1;fill-rule:nonzero;stroke:none"
           d="m 281.83155,298.7707 c 1.389,0 1.676,-1.392 1.676,-2.141 0,-0.75 -0.287,-2.142 -1.676,-2.142 -1.389,0 -1.676,1.392 -1.676,2.142 0,0.749 0.287,2.141 1.676,2.141 m 0,-5.096 c 1.841,0 2.678,1.509 2.678,2.955 0,1.445 -0.837,2.954 -2.678,2.954 -1.841,0 -2.679,-1.509 -2.679,-2.954 0,-1.446 0.838,-2.955 2.679,-2.955" /><path
           inkscape:connector-curvature="0"
           id="path74"
           style="fill:#2d2c2e;fill-opacity:1;fill-rule:nonzero;stroke:none"
           d="m 287.52195,298.7384 c 0.816,0 1.246,-0.45 1.367,-1.199 l 0.937,0 c -0.077,0.973 -0.65,2.045 -2.161,2.045 -1.907,0 -2.766,-1.381 -2.766,-3.117 0,-1.616 0.959,-2.804 2.579,-2.804 1.686,0 2.249,1.253 2.348,2.141 l -0.937,0 c -0.165,-0.856 -0.728,-1.328 -1.378,-1.328 -1.333,0 -1.576,1.189 -1.576,2.153 0,0.996 0.386,2.109 1.587,2.109" /><path
           d="m 291.45935,301.5111 -0.97,0 0,-1.071 0.97,0 0,1.071 z"
           style="fill:#2d2c2e;fill-opacity:1;fill-rule:nonzero;stroke:none"
           id="path76"
           inkscape:connector-curvature="0" /><path
           d="m 291.45935,299.4231 -0.97,0 0,-5.599 0.97,0 0,5.599 z"
           style="fill:#2d2c2e;fill-opacity:1;fill-rule:nonzero;stroke:none"
           id="path78"
           inkscape:connector-curvature="0" /><path
           inkscape:connector-curvature="0"
           id="path82"
           style="fill:#2d2c2e;fill-opacity:1;fill-rule:nonzero;stroke:none"
           d="m 296.10205,295.7619 c 0,-0.749 -0.882,-1.316 -1.786,-1.316 -0.728,0 -1.047,0.363 -1.047,0.973 0,0.707 0.76,0.846 1.234,0.91 1.202,0.15 1.444,0.236 1.599,0.354 l 0,-0.921 z m 1.609,-1.938 0,0.685 c -0.11,-0.02 -0.232,-0.043 -0.32,-0.043 -0.198,0 -0.319,0.097 -0.319,0.333 l 0,3.222 c 0,1.434 -1.676,1.563 -2.139,1.563 -1.422,0 -2.336,-0.525 -2.381,-1.863 l 0.893,0 c 0.066,0.429 0.221,1.081 1.323,1.081 0.915,0 1.356,-0.321 1.356,-0.91 0,-0.556 -0.276,-0.642 -0.507,-0.663 l -1.599,-0.193 c -1.609,-0.193 -1.752,-1.285 -1.752,-1.755 0,-0.963 0.749,-1.618 1.807,-1.618 1.125,0 1.709,0.514 2.084,0.911 0.033,-0.429 0.165,-0.857 1.025,-0.857 0.22,0 0.364,0.065 0.529,0.107" /><path
           inkscape:connector-curvature="0"
           id="path86"
           style="fill:#2d2c2e;fill-opacity:1;fill-rule:nonzero;stroke:none"
           d="m 296.44285,301.6818 -1.168,0 -0.981,-1.509 0.738,0 1.411,1.509 z" /><path
           d="m 299.37935,301.5111 -0.97,0 0,-7.687 0.97,0 0,7.687 z"
           style="fill:#2d2c2e;fill-opacity:1;fill-rule:nonzero;stroke:none"
           id="path88"
           inkscape:connector-curvature="0" /><path
           inkscape:connector-curvature="0"
           id="path92"
           style="fill:#2d2c2e;fill-opacity:1;fill-rule:nonzero;stroke:none"
           d="m 301.47365,296.8752 c 0,1.521 0.97,1.863 1.521,1.863 0.948,0 1.235,-0.492 1.235,-1.467 l 0,-3.447 0.97,0 0,3.811 c 0,1.595 -1.125,1.949 -2.017,1.949 -0.992,0 -1.533,-0.653 -1.742,-0.953 l -0.022,0 0,0.792 -0.915,0 0,-5.599 0.97,0 0,3.051 z" /><path
           d="m 306.63535,293.8241 0.97,0 0,5.599 -0.97,0 0,-5.599 z"
           style="fill:#2d2c2e;fill-opacity:1;fill-rule:nonzero;stroke:none"
           id="path94"
           inkscape:connector-curvature="0" /><path
           inkscape:connector-curvature="0"
           id="path98"
           style="fill:#2d2c2e;fill-opacity:1;fill-rule:nonzero;stroke:none"
           d="m 307.64985,301.6818 -0.981,-1.509 0.738,0 1.411,1.509 -1.168,0 z" /><path
           inkscape:connector-curvature="0"
           id="path102"
           style="fill:#2d2c2e;fill-opacity:1;fill-rule:nonzero;stroke:none"
           d="m 276.47215,287.0031 0,0.781 -0.97,0 0,0.697 c 0,0.449 0.154,0.652 0.573,0.652 0.121,0 0.276,-0.01 0.397,-0.021 l 0,0.846 c -0.154,0.01 -0.298,0.022 -0.441,0.022 -0.948,0 -1.499,-0.386 -1.499,-1.232 l 0,-0.964 -0.794,0 0,-0.781 0.794,0 0,-4.817 0.97,0 0,4.817 0.97,0 z" /><path
           inkscape:connector-curvature="0"
           id="path106"
           style="fill:#2d2c2e;fill-opacity:1;fill-rule:nonzero;stroke:none"
           d="m 277.71875,284.9904 c 0,0.75 0.286,2.141 1.675,2.141 1.389,0 1.676,-1.391 1.676,-2.141 0,-0.749 -0.287,-2.142 -1.676,-2.142 -1.389,0 -1.675,1.393 -1.675,2.142 m 4.354,0 c 0,1.446 -0.838,2.955 -2.679,2.955 -1.841,0 -2.678,-1.509 -2.678,-2.955 0,-1.445 0.837,-2.954 2.678,-2.954 1.841,0 2.679,1.509 2.679,2.954" /><path
           inkscape:connector-curvature="0"
           id="path110"
           style="fill:#2d2c2e;fill-opacity:1;fill-rule:nonzero;stroke:none"
           d="m 285.52585,287.9455 c -0.993,0 -1.533,-0.653 -1.742,-0.953 l -0.022,0 0,0.792 -0.915,0 0,-5.599 0.97,0 0,3.051 c 0,1.521 0.97,1.863 1.521,1.863 0.948,0 1.235,-0.492 1.235,-1.467 l 0,-3.447 0.97,0 0,3.811 c 0,1.595 -1.125,1.949 -2.017,1.949" /><path
           inkscape:connector-curvature="0"
           id="path114"
           style="fill:#2d2c2e;fill-opacity:1;fill-rule:nonzero;stroke:none"
           d="m 290.87545,282.839 c -1.059,0 -1.555,0.932 -1.555,2.162 0,0.718 0.077,2.099 1.576,2.099 1.401,0 1.555,-1.467 1.555,-2.377 0,-1.488 -0.959,-1.884 -1.576,-1.884 m 1.587,7.033 0,-2.804 -0.022,-0.076 c -0.232,0.322 -0.673,0.953 -1.72,0.953 -1.532,0 -2.403,-1.22 -2.403,-2.794 0,-1.338 0.574,-3.126 2.535,-3.126 0.563,0 1.224,0.17 1.643,0.931 l 0.022,0 0,-0.77 0.915,0 0,7.686 -0.97,0 z" /><path
           inkscape:connector-curvature="0"
           id="path118"
           style="fill:#2d2c2e;fill-opacity:1;fill-rule:nonzero;stroke:none"
           d="m 300.84375,287.7843 -1.631,-4.561 -0.022,0 -1.499,4.561 -1.125,0 2.106,-5.599 1.036,0 2.193,5.599 -1.058,0 z" /><path
           inkscape:connector-curvature="0"
           id="path122"
           style="fill:#2d2c2e;fill-opacity:1;fill-rule:nonzero;stroke:none"
           d="m 309.24705,290.4084 1.091,1.188 -0.937,0 -0.838,-0.782 -0.837,0.782 -0.926,0 1.091,-1.188 1.356,0 z" /><path
           inkscape:connector-curvature="0"
           id="path126"
           style="fill:#2d2c2e;fill-opacity:1;fill-rule:nonzero;stroke:none"
           d="m 311.91405,285.0119 -1.036,0 c -0.363,-1.788 -1.565,-2.108 -2.26,-2.108 -1.962,0 -2.623,1.391 -2.623,3.2 0,2.023 1.157,3.052 2.591,3.052 0.76,0 1.917,-0.247 2.215,-1.596 l 1.036,0 c -0.154,1.285 -1.212,2.516 -3.251,2.516 -2.304,0 -3.693,-1.638 -3.693,-4.003 0,-2.956 1.763,-4.091 3.56,-4.091 0.595,0 3.02,0.129 3.461,3.03" /><path
           inkscape:connector-curvature="0"
           id="path130"
           style="fill:#2d2c2e;fill-opacity:1;fill-rule:nonzero;stroke:none"
           d="m 316.55855,286.3713 -2.48,0 0,2.612 2.668,0 c 0.529,0 1.422,-0.095 1.422,-1.285 0,-1.134 -0.827,-1.327 -1.61,-1.327 m 3.021,-4.015 c -0.331,0.182 -0.386,0.343 -0.397,0.771 l -0.066,1.392 c -0.045,1.071 -0.497,1.263 -0.948,1.446 0.507,0.289 1.102,0.707 1.102,1.842 0,1.627 -1.301,2.065 -2.602,2.065 l -3.659,0 0,-7.687 1.069,0 0,3.297 2.59,0 c 1.279,0 1.411,-0.738 1.411,-1.37 0,-0.289 0.034,-1.456 0.188,-1.927 l 1.312,0 0,0.171 z" /></g><g
         transform="translate(65.533496,0)"
         id="g5778"><path
           d="m 404.54535,293.5871 -71.387,0 0,47.4 71.387,0 0,-47.4 z m -72.492,-1.103 73.595,0 0,0.552 0,49.055 -73.595,0 0,-49.607 z"
           style="fill:#2d2c2e;fill-opacity:1;fill-rule:nonzero;stroke:none"
           id="path132"
           inkscape:connector-curvature="0" /><path
           inkscape:connector-curvature="0"
           id="path136"
           style="fill:#2d2c2e;fill-opacity:1;fill-rule:nonzero;stroke:none"
           d="m 367.16015,331.2834 1.66,1.212 1.695,-1.152 -0.636,1.955 1.623,1.261 -2.055,-0.005 -0.698,1.938 -0.634,-1.958 -2.057,-0.072 1.666,-1.205 -0.564,-1.974 z" /><path
           inkscape:connector-curvature="0"
           id="path140"
           style="fill:#2d2c2e;fill-opacity:1;fill-rule:nonzero;stroke:none"
           d="m 359.15725,329.1007 1.655,1.205 1.704,-1.148 -0.634,1.957 1.62,1.261 -2.055,-0.002 -0.703,1.933 -0.633,-1.954 -2.054,-0.071 1.662,-1.208 -0.562,-1.973 z" /><path
           inkscape:connector-curvature="0"
           id="path144"
           style="fill:#2d2c2e;fill-opacity:1;fill-rule:nonzero;stroke:none"
           d="m 353.24415,323.2863 1.659,1.212 1.705,-1.158 -0.638,1.957 1.622,1.267 -2.061,-0.009 -0.696,1.936 -0.627,-1.956 -2.063,-0.07 1.668,-1.204 -0.569,-1.975 z" /><path
           inkscape:connector-curvature="0"
           id="path148"
           style="fill:#2d2c2e;fill-opacity:1;fill-rule:nonzero;stroke:none"
           d="m 351.24415,315.1862 1.667,1.208 1.695,-1.15 -0.631,1.954 1.617,1.263 -2.055,-0.003 -0.704,1.934 -0.628,-1.956 -2.058,-0.073 1.663,-1.202 -0.566,-1.975 z" /><path
           inkscape:connector-curvature="0"
           id="path152"
           style="fill:#2d2c2e;fill-opacity:1;fill-rule:nonzero;stroke:none"
           d="m 355.62845,310.0754 -0.697,1.93 -0.634,-1.951 -2.055,-0.079 1.667,-1.202 -0.566,-1.977 1.659,1.209 1.705,-1.147 -0.641,1.956 1.616,1.261 -2.054,0 z" /><path
           inkscape:connector-curvature="0"
           id="path156"
           style="fill:#2d2c2e;fill-opacity:1;fill-rule:nonzero;stroke:none"
           d="m 359.05855,300.8942 1.663,1.208 1.694,-1.151 -0.632,1.951 1.619,1.264 -2.052,-0.004 -0.695,1.937 -0.638,-1.958 -2.056,-0.069 1.665,-1.21 -0.568,-1.968 z" /><path
           inkscape:connector-curvature="0"
           id="path160"
           style="fill:#2d2c2e;fill-opacity:1;fill-rule:nonzero;stroke:none"
           d="m 369.73295,302.1642 -0.698,1.931 -0.633,-1.952 -2.052,-0.076 1.66,-1.205 -0.563,-1.969 1.661,1.205 1.7,-1.148 -0.639,1.951 1.621,1.263 -2.057,0 z" /><path
           inkscape:connector-curvature="0"
           id="path164"
           style="fill:#2d2c2e;fill-opacity:1;fill-rule:nonzero;stroke:none"
           d="m 377.73925,304.1623 -0.695,1.937 -0.634,-1.958 -2.057,-0.069 1.665,-1.21 -0.57,-1.968 1.662,1.208 1.701,-1.151 -0.641,1.951 1.623,1.264 -2.054,-0.004 z" /><path
           inkscape:connector-curvature="0"
           id="path168"
           style="fill:#2d2c2e;fill-opacity:1;fill-rule:nonzero;stroke:none"
           d="m 381.36035,306.9933 1.66,1.211 1.699,-1.153 -0.633,1.949 1.614,1.264 -2.05,0 -0.704,1.936 -0.63,-1.957 -2.056,-0.074 1.668,-1.202 -0.568,-1.974 z" /><path
           inkscape:connector-curvature="0"
           id="path172"
           style="fill:#2d2c2e;fill-opacity:1;fill-rule:nonzero;stroke:none"
           d="m 384.50685,318.3415 -2.056,-0.074 1.66,-1.204 -0.561,-1.973 1.658,1.21 1.706,-1.149 -0.637,1.952 1.615,1.264 -2.053,-0.004 -0.698,1.935 -0.634,-1.957 z" /><path
           inkscape:connector-curvature="0"
           id="path176"
           style="fill:#2d2c2e;fill-opacity:1;fill-rule:nonzero;stroke:none"
           d="m 381.45455,323.194 1.66,1.205 1.698,-1.147 -0.638,1.951 1.629,1.262 -2.067,0 -0.697,1.928 -0.625,-1.947 -2.062,-0.078 1.668,-1.205 -0.566,-1.969 z" /><path
           inkscape:connector-curvature="0"
           id="path180"
           style="fill:#2d2c2e;fill-opacity:1;fill-rule:nonzero;stroke:none"
           d="m 375.25385,329.1007 1.662,1.214 1.706,-1.157 -0.635,1.957 1.621,1.261 -2.057,-0.002 -0.696,1.933 -0.642,-1.954 -2.053,-0.071 1.665,-1.208 -0.571,-1.973 z" /><path
           inkscape:connector-curvature="0"
           id="path184"
           style="fill:#2d2c2e;fill-opacity:1;fill-rule:nonzero;stroke:none"
           d="m 336.82375,287.9601 0,0.804 -4.769,0 0,-6.575 4.832,0 0,0.78 -3.963,0 0,2.233 3.608,0 0,0.76 -3.608,0 0,1.998 3.9,0 z" /><path
           inkscape:connector-curvature="0"
           id="path188"
           style="fill:#2d2c2e;fill-opacity:1;fill-rule:nonzero;stroke:none"
           d="m 343.39505,288.7638 -1.001,0 -1.874,-5.598 -1.889,5.598 -0.983,0 2.395,-6.574 0.944,0 2.408,6.574 z" /><path
           inkscape:connector-curvature="0"
           id="path192"
           style="fill:#2d2c2e;fill-opacity:1;fill-rule:nonzero;stroke:none"
           d="m 348.14205,286.007 c -0.236,-0.17 -0.553,-0.251 -0.958,-0.251 l -1.982,0 0,2.246 2.096,0 c 0.295,0 0.53,-0.045 0.703,-0.136 0.329,-0.17 0.492,-0.487 0.492,-0.957 0,-0.431 -0.114,-0.735 -0.351,-0.902 m 1.02,0.021 c 0.163,0.25 0.247,0.573 0.247,0.968 0,0.751 -0.305,1.27 -0.909,1.549 -0.321,0.146 -0.725,0.219 -1.216,0.219 l -2.981,0 0,-6.574 0.899,0 0,2.823 1.957,0 c 0.352,0 0.609,-0.04 0.774,-0.12 0.287,-0.143 0.441,-0.432 0.46,-0.865 l 0.057,-1.097 c 0.01,-0.255 0.023,-0.429 0.042,-0.52 0.014,-0.092 0.038,-0.161 0.065,-0.221 l 1.1,0 0,0.15 c -0.137,0.06 -0.234,0.196 -0.287,0.403 -0.033,0.126 -0.054,0.308 -0.064,0.56 l -0.027,0.882 c -0.017,0.384 -0.089,0.657 -0.218,0.828 -0.13,0.168 -0.326,0.31 -0.585,0.411 0.294,0.153 0.523,0.354 0.686,0.604" /><path
           inkscape:connector-curvature="0"
           id="path196"
           style="fill:#2d2c2e;fill-opacity:1;fill-rule:nonzero;stroke:none"
           d="m 351.86575,283.548 c -0.368,0.498 -0.554,1.115 -0.554,1.845 0,0.908 0.217,1.596 0.649,2.066 0.426,0.467 0.983,0.7 1.66,0.7 0.703,0 1.257,-0.238 1.661,-0.705 0.404,-0.475 0.605,-1.097 0.605,-1.869 0,-0.733 -0.174,-1.379 -0.522,-1.939 -0.352,-0.568 -0.922,-0.851 -1.706,-0.851 -0.827,0 -1.424,0.254 -1.793,0.753 m 4.188,-0.402 c 0.5,0.649 0.748,1.464 0.748,2.446 0,0.906 -0.22,1.651 -0.652,2.231 -0.559,0.747 -1.415,1.12 -2.576,1.12 -1.108,0 -1.945,-0.406 -2.513,-1.217 -0.44,-0.63 -0.661,-1.393 -0.661,-2.282 0,-0.984 0.256,-1.798 0.773,-2.444 0.578,-0.668 1.372,-1.001 2.382,-1.001 1.083,0 1.915,0.381 2.499,1.147" /><path
           inkscape:connector-curvature="0"
           id="path200"
           style="fill:#2d2c2e;fill-opacity:1;fill-rule:nonzero;stroke:none"
           d="m 361.58205,285.9767 c -0.248,-0.17 -0.568,-0.256 -0.964,-0.256 l -1.753,0 0,2.281 1.753,0 c 0.337,0 0.606,-0.046 0.802,-0.138 0.354,-0.175 0.529,-0.502 0.529,-0.988 0,-0.426 -0.121,-0.728 -0.367,-0.899 m -0.675,2.787 -2.943,0 0,-6.574 0.901,0 0,2.781 2.044,0 c 0.657,0 1.144,0.194 1.461,0.573 0.32,0.378 0.479,0.826 0.479,1.337 0,0.596 -0.177,1.057 -0.536,1.389 -0.357,0.33 -0.824,0.494 -1.406,0.494" /><path
           inkscape:connector-curvature="0"
           id="path204"
           style="fill:#2d2c2e;fill-opacity:1;fill-rule:nonzero;stroke:none"
           d="m 367.95655,282.4709 c 0.516,0.309 0.774,0.832 0.774,1.557 0,0.587 -0.202,1.03 -0.606,1.337 -0.233,0.179 -0.564,0.313 -0.998,0.418 l -0.89,0.212 c -0.599,0.139 -0.987,0.262 -1.156,0.354 -0.26,0.149 -0.391,0.387 -0.391,0.709 0,0.293 0.109,0.55 0.331,0.767 0.218,0.226 0.58,0.333 1.083,0.333 0.626,0 1.068,-0.174 1.327,-0.514 0.142,-0.187 0.233,-0.459 0.274,-0.811 l 0.835,0 c 0,0.733 -0.235,1.261 -0.704,1.595 -0.467,0.333 -1.038,0.502 -1.709,0.502 -0.728,0 -1.292,-0.191 -1.69,-0.568 -0.397,-0.378 -0.594,-0.867 -0.594,-1.456 0,-0.551 0.201,-0.957 0.604,-1.232 0.234,-0.155 0.634,-0.302 1.198,-0.436 l 0.86,-0.199 c 0.469,-0.109 0.813,-0.24 1.034,-0.39 0.214,-0.151 0.323,-0.407 0.323,-0.765 0,-0.475 -0.256,-0.807 -0.766,-0.994 -0.266,-0.095 -0.559,-0.142 -0.883,-0.142 -0.718,0 -1.217,0.219 -1.502,0.651 -0.15,0.235 -0.237,0.536 -0.257,0.909 l -0.833,0 c -0.009,-0.709 0.21,-1.268 0.664,-1.682 0.451,-0.418 1.075,-0.626 1.873,-0.626 0.681,0 1.281,0.157 1.799,0.471" /><path
           inkscape:connector-curvature="0"
           id="path208"
           style="fill:#2d2c2e;fill-opacity:1;fill-rule:nonzero;stroke:none"
           d="m 369.93655,288.7638 0,-6.574 0.871,0 0,2.297 1.067,1.01 2.35,-3.307 1.17,0 -2.861,3.927 2.796,2.647 -1.241,0 -3.281,-3.217 0,3.217 -0.871,0 z" /><path
           inkscape:connector-curvature="0"
           id="path212"
           style="fill:#2d2c2e;fill-opacity:1;fill-rule:nonzero;stroke:none"
           d="m 377.74365,284.8859 1.049,2.904 1.009,-2.904 -2.058,0 z m 0.585,3.878 -2.475,-6.574 0.915,0 0.711,1.97 2.577,0 0.683,-1.97 0.978,0 -2.386,6.574 -1.003,0 z" /><path
           inkscape:connector-curvature="0"
           id="path216"
           style="fill:#2d2c2e;fill-opacity:1;fill-rule:nonzero;stroke:none"
           d="m 379.97855,290.5685 -0.994,0 -0.818,-1.303 0.616,0 1.196,1.303 z" /><path
           inkscape:connector-curvature="0"
           id="path220"
           style="fill:#2d2c2e;fill-opacity:1;fill-rule:nonzero;stroke:none"
           d="m 389.98825,283.2101 c 0.217,0.436 0.324,1.054 0.324,1.865 l 0,3.689 -0.897,0 0,-4.053 c 0,-0.474 -0.072,-0.853 -0.219,-1.134 -0.272,-0.516 -0.788,-0.774 -1.547,-0.774 -0.633,0 -1.082,0.24 -1.348,0.716 -0.183,0.317 -0.271,0.712 -0.271,1.192 l 0,4.053 -0.897,0 0,-3.689 c 0,-0.811 0.108,-1.429 0.327,-1.865 0.395,-0.793 1.15,-1.19 2.262,-1.19 1.11,0 1.865,0.397 2.266,1.19" /><path
           inkscape:connector-curvature="0"
           id="path224"
           style="fill:#2d2c2e;fill-opacity:1;fill-rule:nonzero;stroke:none"
           d="m 395.87795,282.1896 1.001,0 0,6.574 -0.848,0 0,-5.31 -3.275,5.31 -1.044,0 0,-6.574 0.848,0 0,5.31 3.318,-5.31 z" /><path
           d="m 398.43035,282.1901 0.9,0 0,6.573 -0.9,0 0,-6.573 z"
           style="fill:#2d2c2e;fill-opacity:1;fill-rule:nonzero;stroke:none"
           id="path226"
           inkscape:connector-curvature="0" /><path
           inkscape:connector-curvature="0"
           id="path230"
           style="fill:#2d2c2e;fill-opacity:1;fill-rule:nonzero;stroke:none"
           d="m 405.58935,287.9601 0,0.804 -4.769,0 0,-6.575 4.834,0 0,0.78 -3.966,0 0,2.233 3.609,0 0,0.76 -3.609,0 0,1.998 3.901,0 z" /></g><g
         transform="translate(114.52766,0)"
         id="g5806"><path
           inkscape:connector-curvature="0"
           id="path234"
           style="fill:#2d2c2e;fill-opacity:1;fill-rule:nonzero;stroke:none"
           d="m 487.23725,338.259 6.222,3.7 -1.969,0 -5.718,-2.575 -5.818,2.575 -1.857,0 6.269,-3.7 2.871,0 z" /><path
           inkscape:connector-curvature="0"
           id="path238"
           style="fill:#2d2c2e;fill-opacity:1;fill-rule:nonzero;stroke:none"
           d="m 485.71675,326.2282 c 4.164,-0.894 5.402,-2.48 5.402,-4.008 0,-1.181 -0.845,-2.218 -2.339,-2.93 l 0,4.174 -4.489,0 -3.67,-4.762 c -1.523,0.394 -2.874,1.089 -3.906,2.131 l -1.86,-0.693 c 1.192,-1.149 2.982,-1.92 5.066,-2.349 l -7.066,-9.169 -0.11,0 -11.531,14.683 13.051,16.578 0,-16.106 3.833,0 0,4.424 c 2.023,-0.811 4.797,-1.331 7.619,-1.973 m -12.108,15.731 -11.438,-14.844 -0.109,0 -11.658,14.844 -4.377,0 0,-18.182 2.133,0 0,15.88 12.82,-16.193 -3.946,0 0,-18.182 1.808,0 0,15.881 12.972,-16.387 0.054,0 13.081,16.612 0,-16.106 3.831,0 0,12.088 6.772,0 0,-16.957 3.939,0 0,16.957 8.155,0 0,0.873 -17.388,0 c 2.727,0.874 4.752,2.405 5.025,4.551 0,3.032 -3.544,4.243 -7.033,4.963 -5.065,1.011 -8.667,1.846 -9.229,4.038 -0.105,0.306 -0.115,0.464 -0.115,0.694 0.115,2.364 3.436,3.836 6.473,3.836 3.096,0 5.066,-0.401 7.033,-2.25 l 1.689,0.549 c -2.193,1.962 -5.176,2.481 -8.722,2.481 -2.945,0 -5.461,-0.493 -7.281,-1.38 l 0,6.234 -4.489,0 z" /><path
           inkscape:connector-curvature="0"
           id="path242"
           style="fill:#2d2c2e;fill-opacity:1;fill-rule:nonzero;stroke:none"
           d="m 419.82615,290.1017 0,5.741 -0.844,0 -2.457,-5.211 -2.425,5.211 -0.916,0 0,-5.741 0.567,0 -0.057,5.247 2.497,-5.247 0.659,0 2.435,5.247 -0.023,-5.247 0.564,0 z" /><path
           d="m 422.02035,290.1021 0.572,0 0,5.741 -0.572,0 0,-5.741 z"
           style="fill:#2d2c2e;fill-opacity:1;fill-rule:nonzero;stroke:none"
           id="path244"
           inkscape:connector-curvature="0" /><path
           inkscape:connector-curvature="0"
           id="path248"
           style="fill:#2d2c2e;fill-opacity:1;fill-rule:nonzero;stroke:none"
           d="m 429.31935,290.1017 0.764,0 0,5.741 -0.556,0 0,-5.153 -4.017,5.153 -0.73,0 0,-5.741 0.557,0 0,5.152 3.982,-5.152 z" /><path
           d="m 432.27835,290.1021 0.572,0 0,5.741 -0.572,0 0,-5.741 z"
           style="fill:#2d2c2e;fill-opacity:1;fill-rule:nonzero;stroke:none"
           id="path250"
           inkscape:connector-curvature="0" /><path
           inkscape:connector-curvature="0"
           id="path254"
           style="fill:#2d2c2e;fill-opacity:1;fill-rule:nonzero;stroke:none"
           d="m 438.09865,293.1935 -1.089,0.191 c -0.962,0.167 -1.432,0.375 -1.432,0.977 0,0.661 0.595,1.105 1.615,1.105 1.025,0 1.598,-0.436 1.67,-1.239 l 0.571,0 c -0.031,1.098 -0.856,1.763 -2.258,1.763 -1.376,0 -2.186,-0.673 -2.186,-1.659 0,-0.796 0.445,-1.273 1.36,-1.432 l 1.225,-0.216 c 0.97,-0.174 1.429,-0.34 1.429,-0.993 0,-0.699 -0.658,-1.175 -1.779,-1.175 -1.112,0 -1.821,0.577 -1.821,1.447 l 0,0.03 -0.581,0 0,-0.087 c 0,-1.192 0.915,-1.956 2.458,-1.956 1.477,0 2.328,0.668 2.328,1.765 0,0.852 -0.468,1.297 -1.51,1.479" /><path
           inkscape:connector-curvature="0"
           id="path258"
           style="fill:#2d2c2e;fill-opacity:1;fill-rule:nonzero;stroke:none"
           d="m 443.67965,290.1017 0,5.216 2.221,0 0,0.525 -5.01,0 0,-0.525 2.218,0 0,-5.216 0.571,0 z" /><path
           inkscape:connector-curvature="0"
           id="path262"
           style="fill:#2d2c2e;fill-opacity:1;fill-rule:nonzero;stroke:none"
           d="m 451.79885,290.6418 -3.839,0 0,2.114 3.546,0 0,0.54 -3.546,0 0,2.014 3.839,0 0,0.533 -4.413,0 0,-5.741 4.413,0 0,0.54 z" /><path
           inkscape:connector-curvature="0"
           id="path266"
           style="fill:#2d2c2e;fill-opacity:1;fill-rule:nonzero;stroke:none"
           d="m 454.21675,293.1056 0,2.204 2.044,0 c 1.105,0 1.615,-0.247 1.615,-1.1 0,-0.81 -0.486,-1.104 -1.543,-1.104 l -2.116,0 z m 3.539,-1.328 c 0.071,-0.58 0.023,-1.152 0.198,-1.676 l 0.669,0 c -0.238,0.334 -0.191,0.914 -0.278,1.676 -0.081,0.684 -0.231,0.986 -0.884,1.091 0.693,0.229 0.995,0.675 0.995,1.43 0,1.027 -0.691,1.544 -2.059,1.544 l -2.752,0 0,-5.741 0.572,0 0,2.465 2.417,0 c 0.717,0 1.051,-0.198 1.122,-0.789" /><path
           inkscape:connector-curvature="0"
           id="path270"
           style="fill:#2d2c2e;fill-opacity:1;fill-rule:nonzero;stroke:none"
           d="m 460.24605,291.9924 0,-0.087 c 0,-1.192 0.913,-1.956 2.456,-1.956 1.48,0 2.33,0.668 2.33,1.765 0,0.852 -0.471,1.298 -1.511,1.479 l -1.089,0.192 c -0.962,0.167 -1.431,0.375 -1.431,0.976 0,0.661 0.595,1.106 1.614,1.106 1.026,0 1.599,-0.437 1.669,-1.24 l 0.572,0 c -0.031,1.098 -0.858,1.763 -2.258,1.763 -1.375,0 -2.186,-0.673 -2.186,-1.659 0,-0.796 0.444,-1.273 1.359,-1.432 l 1.225,-0.216 c 0.971,-0.173 1.431,-0.339 1.431,-0.993 0,-0.699 -0.66,-1.175 -1.781,-1.175 -1.114,0 -1.821,0.578 -1.821,1.447 l 0,0.03 -0.579,0 z" /><path
           inkscape:connector-curvature="0"
           id="path274"
           style="fill:#2d2c2e;fill-opacity:1;fill-rule:nonzero;stroke:none"
           d="m 469.10155,290.1017 0,5.216 2.22,0 0,0.525 -5.009,0 0,-0.525 2.218,0 0,-5.216 0.571,0 z" /><path
           inkscape:connector-curvature="0"
           id="path278"
           style="fill:#2d2c2e;fill-opacity:1;fill-rule:nonzero;stroke:none"
           d="m 475.10545,290.5929 -2.306,5.25 -0.627,0 2.569,-5.741 0.723,0 2.577,5.741 -0.631,0 -2.305,-5.25 z" /><path
           inkscape:connector-curvature="0"
           id="path282"
           style="fill:#2d2c2e;fill-opacity:1;fill-rule:nonzero;stroke:none"
           d="m 479.70215,292.9728 c 0,1.541 0.915,2.464 2.434,2.464 1.519,0 2.432,-0.923 2.432,-2.464 0,-1.545 -0.913,-2.466 -2.432,-2.466 -1.519,0 -2.434,0.921 -2.434,2.466 m 5.455,0 c 0,1.867 -1.137,3.019 -3.021,3.019 -1.884,0 -3.013,-1.152 -3.013,-3.019 0,-1.871 1.129,-3.023 3.013,-3.023 1.884,0 3.021,1.152 3.021,3.023" /><path
           inkscape:connector-curvature="0"
           id="path286"
           style="fill:#2d2c2e;fill-opacity:1;fill-rule:nonzero;stroke:none"
           d="m 493.97555,297.5998 -0.613,0 -0.818,-0.853 -0.819,0.853 -0.612,0 1.106,-1.178 0.651,0 1.105,1.178 z" /><path
           inkscape:connector-curvature="0"
           id="path290"
           style="fill:#2d2c2e;fill-opacity:1;fill-rule:nonzero;stroke:none"
           d="m 490.18265,291.9924 0,-0.087 c 0,-1.192 0.915,-1.956 2.457,-1.956 1.481,0 2.33,0.668 2.33,1.765 0,0.852 -0.468,1.298 -1.511,1.479 l -1.089,0.192 c -0.962,0.167 -1.431,0.375 -1.431,0.976 0,0.661 0.597,1.106 1.613,1.106 1.027,0 1.598,-0.437 1.671,-1.24 l 0.573,0 c -0.032,1.098 -0.86,1.763 -2.258,1.763 -1.376,0 -2.186,-0.673 -2.186,-1.659 0,-0.796 0.444,-1.273 1.358,-1.432 l 1.225,-0.216 c 0.97,-0.173 1.432,-0.339 1.432,-0.993 0,-0.699 -0.661,-1.175 -1.783,-1.175 -1.113,0 -1.82,0.578 -1.82,1.447 l 0,0.03 -0.581,0 z" /><path
           inkscape:connector-curvature="0"
           id="path294"
           style="fill:#2d2c2e;fill-opacity:1;fill-rule:nonzero;stroke:none"
           d="m 501.03615,295.8429 -3.553,-3.143 0,3.143 -0.573,0 0,-5.741 0.573,0 0,1.9 1.217,1.064 2.399,-2.964 0.734,0 -2.703,3.337 2.703,2.404 -0.797,0 z" /><path
           inkscape:connector-curvature="0"
           id="path298"
           style="fill:#2d2c2e;fill-opacity:1;fill-rule:nonzero;stroke:none"
           d="m 508.24905,292.9728 c 0,-1.545 -0.914,-2.466 -2.434,-2.466 -1.519,0 -2.431,0.921 -2.431,2.466 0,1.541 0.912,2.464 2.431,2.464 1.52,0 2.434,-0.923 2.434,-2.464 m -5.446,0 c 0,-1.871 1.13,-3.023 3.012,-3.023 1.885,0 3.022,1.152 3.022,3.023 0,1.867 -1.137,3.019 -3.022,3.019 -1.882,0 -3.012,-1.152 -3.012,-3.019" /><path
           inkscape:connector-curvature="0"
           id="path302"
           style="fill:#2d2c2e;fill-opacity:1;fill-rule:nonzero;stroke:none"
           d="m 510.70605,295.8429 0,-5.741 4.184,0 0,0.54 -3.61,0 0,5.201 -0.574,0 z" /><path
           inkscape:connector-curvature="0"
           id="path306"
           style="fill:#2d2c2e;fill-opacity:1;fill-rule:nonzero;stroke:none"
           d="m 521.15525,291.714 c 0,0.853 -0.469,1.298 -1.512,1.479 l -1.088,0.192 c -0.963,0.167 -1.431,0.375 -1.431,0.976 0,0.662 0.595,1.106 1.613,1.106 1.025,0 1.6,-0.437 1.67,-1.239 l 0.572,0 c -0.029,1.097 -0.859,1.762 -2.258,1.762 -1.377,0 -2.187,-0.672 -2.187,-1.659 0,-0.796 0.445,-1.272 1.363,-1.431 l 1.223,-0.216 c 0.971,-0.174 1.431,-0.34 1.431,-0.993 0,-0.7 -0.66,-1.175 -1.783,-1.175 -1.111,0 -1.82,0.577 -1.82,1.446 l 0,0.03 -0.58,0 0,-0.087 c 0,-1.192 0.914,-1.956 2.457,-1.956 1.48,0 2.33,0.668 2.33,1.765" /><path
           inkscape:connector-curvature="0"
           id="path310"
           style="fill:#2d2c2e;fill-opacity:1;fill-rule:nonzero;stroke:none"
           d="m 525.22555,290.1017 0,5.216 2.219,0 0,0.525 -5.01,0 0,-0.525 2.221,0 0,-5.216 0.57,0 z" /><path
           inkscape:connector-curvature="0"
           id="path314"
           style="fill:#2d2c2e;fill-opacity:1;fill-rule:nonzero;stroke:none"
           d="m 533.53615,295.8429 -2.307,-5.25 -2.304,5.25 -0.629,0 2.566,-5.741 0.725,0 2.576,5.741 -0.627,0 z" /><path
           d="m 535.71435,290.1021 0.572,0 0,5.741 -0.572,0 0,-5.741 z"
           style="fill:#2d2c2e;fill-opacity:1;fill-rule:nonzero;stroke:none"
           id="path316"
           inkscape:connector-curvature="0" /><path
           inkscape:connector-curvature="0"
           id="path320"
           style="fill:#2d2c2e;fill-opacity:1;fill-rule:nonzero;stroke:none"
           d="m 536.46195,297.5998 -0.684,-1.178 0.471,0 0.938,1.178 -0.725,0 z" /><path
           inkscape:connector-curvature="0"
           id="path324"
           style="fill:#2d2c2e;fill-opacity:1;fill-rule:nonzero;stroke:none"
           d="m 538.76855,290.1017 0.287,0 0,-0.343 c 0,-0.261 -0.072,-0.423 -0.287,-0.532 l 0,-0.367 c 0.5,0.168 0.645,0.453 0.645,1.01 l 0,0.931 -0.645,0 0,-0.699 z" /><path
           inkscape:connector-curvature="0"
           id="path328"
           style="fill:#2d2c2e;fill-opacity:1;fill-rule:nonzero;stroke:none"
           d="m 428.41505,286.9259 -0.701,0 -2.038,-4.324 -2.015,4.324 -0.758,0 0,-4.768 0.468,0 -0.046,4.358 2.072,-4.358 0.548,0 2.02,4.358 -0.021,-4.358 0.471,0 0,4.768 z" /><path
           inkscape:connector-curvature="0"
           id="path332"
           style="fill:#2d2c2e;fill-opacity:1;fill-rule:nonzero;stroke:none"
           d="m 430.54685,286.9259 -0.476,0 0,-4.768 3.472,0 0,0.45 -2.996,0 0,4.318 z" /><path
           inkscape:connector-curvature="0"
           id="path336"
           style="fill:#2d2c2e;fill-opacity:1;fill-rule:nonzero;stroke:none"
           d="m 435.68165,284.0939 1.097,2.435 1.088,-2.435 -2.185,0 z m 1.373,2.832 -0.548,0 -2.199,-4.768 0.489,0 0.675,1.474 2.607,0 0.666,-1.474 0.481,0 -2.171,4.768 z" /><path
           inkscape:connector-curvature="0"
           id="path340"
           style="fill:#2d2c2e;fill-opacity:1;fill-rule:nonzero;stroke:none"
           d="m 436.57325,287.4074 0.389,0 0.78,0.976 -0.602,0 -0.567,-0.976 z" /><path
           inkscape:connector-curvature="0"
           id="path344"
           style="fill:#2d2c2e;fill-opacity:1;fill-rule:nonzero;stroke:none"
           d="m 440.85155,286.4953 1.152,0 c 0.742,0 1.27,-0.032 1.671,-0.297 0.457,-0.303 0.667,-0.832 0.667,-1.625 0,-0.81 -0.196,-1.347 -0.667,-1.655 -0.389,-0.258 -0.883,-0.303 -1.563,-0.303 l -1.26,0 0,3.88 z m 3.213,-3.907 c 0.528,0.408 0.766,1.05 0.766,1.953 0,0.904 -0.238,1.544 -0.766,1.954 -0.489,0.377 -1.102,0.43 -1.953,0.43 l -1.737,0 0,-4.767 1.737,0 c 0.851,0 1.464,0.053 1.953,0.43" /><path
           inkscape:connector-curvature="0"
           id="path348"
           style="fill:#2d2c2e;fill-opacity:1;fill-rule:nonzero;stroke:none"
           d="m 449.91305,282.6076 -3.188,0 0,1.755 2.944,0 0,0.448 -2.944,0 0,1.673 3.188,0 0,0.442 -3.664,0 0,-4.767 3.664,0 0,0.449 z" /><path
           inkscape:connector-curvature="0"
           id="path352"
           style="fill:#2d2c2e;fill-opacity:1;fill-rule:nonzero;stroke:none"
           d="m 453.31345,287.6769 -0.681,0.706 -0.507,0 0.917,-0.975 0.542,0 0.917,0.975 -0.51,0 -0.678,-0.706 z" /><path
           inkscape:connector-curvature="0"
           id="path356"
           style="fill:#2d2c2e;fill-opacity:1;fill-rule:nonzero;stroke:none"
           d="m 455.12695,282.6271 -3.57,0 3.57,3.855 0,0.444 -3.992,0 0,-0.444 3.332,0 -3.505,-3.855 0,-0.469 4.165,0 0,0.469 z" /><path
           inkscape:connector-curvature="0"
           id="path360"
           style="fill:#2d2c2e;fill-opacity:1;fill-rule:nonzero;stroke:none"
           d="m 460.09665,282.6076 -3.186,0 0,1.755 2.943,0 0,0.448 -2.943,0 0,1.673 3.186,0 0,0.442 -3.662,0 0,-4.767 3.662,0 0,0.449 z" /><path
           inkscape:connector-curvature="0"
           id="path364"
           style="fill:#2d2c2e;fill-opacity:1;fill-rule:nonzero;stroke:none"
           d="m 465.02925,284.0939 1.096,2.435 1.089,-2.435 -2.185,0 z m 0.825,2.832 -2.2,-4.768 0.49,0 0.674,1.474 2.607,0 0.667,-1.474 0.481,0 -2.171,4.768 -0.548,0 z" /><path
           inkscape:connector-curvature="0"
           id="path368"
           style="fill:#2d2c2e;fill-opacity:1;fill-rule:nonzero;stroke:none"
           d="m 474.15725,286.4894 1.843,0 0,0.436 -4.159,0 0,-0.436 1.842,0 0,-4.331 0.474,0 0,4.331 z" /><path
           inkscape:connector-curvature="0"
           id="path372"
           style="fill:#2d2c2e;fill-opacity:1;fill-rule:nonzero;stroke:none"
           d="m 477.57715,282.6076 0,1.755 2.943,0 0,0.448 -2.943,0 0,1.673 3.189,0 0,0.442 -3.664,0 0,-4.767 3.664,0 0,0.449 -3.189,0 z" /><path
           inkscape:connector-curvature="0"
           id="path376"
           style="fill:#2d2c2e;fill-opacity:1;fill-rule:nonzero;stroke:none"
           d="m 479.24125,287.4074 0.918,0.976 -0.511,0 -0.678,-0.707 -0.679,0.707 -0.509,0 0.918,-0.976 0.541,0 z" /><path
           inkscape:connector-curvature="0"
           id="path380"
           style="fill:#2d2c2e;fill-opacity:1;fill-rule:nonzero;stroke:none"
           d="m 485.63675,282.6076 -2.996,0 0,4.318 -0.476,0 0,-4.767 3.472,0 0,0.449 z" /><path
           inkscape:connector-curvature="0"
           id="path384"
           style="fill:#2d2c2e;fill-opacity:1;fill-rule:nonzero;stroke:none"
           d="m 486.67475,284.5412 c 0,1.281 0.758,2.047 2.019,2.047 1.259,0 2.019,-0.766 2.019,-2.047 0,-1.28 -0.76,-2.047 -2.019,-2.047 -1.261,0 -2.019,0.767 -2.019,2.047 m 4.527,0 c 0,1.551 -0.945,2.508 -2.508,2.508 -1.565,0 -2.502,-0.957 -2.502,-2.508 0,-1.552 0.937,-2.508 2.502,-2.508 1.563,0 2.508,0.956 2.508,2.508" /><path
           inkscape:connector-curvature="0"
           id="path388"
           style="fill:#2d2c2e;fill-opacity:1;fill-rule:nonzero;stroke:none"
           d="m 496.31635,286.9259 -1.913,-4.356 -1.916,4.356 -0.52,0 2.131,-4.768 0.601,0 2.14,4.768 -0.523,0 z" /><path
           inkscape:connector-curvature="0"
           id="path392"
           style="fill:#2d2c2e;fill-opacity:1;fill-rule:nonzero;stroke:none"
           d="m 500.00785,284.2179 2.051,2.708 -0.586,0 -1.704,-2.325 -1.683,2.325 -0.607,0 2.052,-2.708 0,-2.06 0.477,0 0,2.06 z" /><path
           inkscape:connector-curvature="0"
           id="path396"
           style="fill:#2d2c2e;fill-opacity:1;fill-rule:nonzero;stroke:none"
           d="m 500.04685,287.4074 0.777,0.976 -0.599,0 -0.569,-0.976 0.391,0 z" /><path
           inkscape:connector-curvature="0"
           id="path400"
           style="fill:#2d2c2e;fill-opacity:1;fill-rule:nonzero;stroke:none"
           d="m 507.79395,283.9474 -0.508,0 c -0.191,-0.891 -0.922,-1.445 -1.883,-1.445 -1.154,0 -1.918,0.779 -1.918,2.039 0,1.273 0.764,2.047 2.014,2.047 0.93,0 1.549,-0.443 1.734,-1.221 l 0.483,0 c -0.152,1.043 -0.971,1.682 -2.209,1.682 -1.567,0 -2.504,-0.957 -2.504,-2.508 0,-1.532 0.957,-2.508 2.416,-2.508 1.248,0 2.158,0.739 2.375,1.914" /><path
           inkscape:connector-curvature="0"
           id="path404"
           style="fill:#2d2c2e;fill-opacity:1;fill-rule:nonzero;stroke:none"
           d="m 513.16115,286.9259 -0.475,0 0,-1.987 -3.101,0 0,1.987 -0.477,0 0,-4.768 0.477,0 0,2.324 3.101,0 0,-2.324 0.475,0 0,4.768 z" /><path
           inkscape:connector-curvature="0"
           id="path408"
           style="fill:#2d2c2e;fill-opacity:1;fill-rule:nonzero;stroke:none"
           d="m 517.08885,282.4943 c -1.262,0 -2.02,0.767 -2.02,2.047 0,1.281 0.758,2.047 2.02,2.047 1.262,0 2.021,-0.766 2.021,-2.047 0,-1.28 -0.759,-2.047 -2.021,-2.047 m 0,4.555 c -1.564,0 -2.502,-0.957 -2.502,-2.508 0,-1.552 0.938,-2.508 2.502,-2.508 1.563,0 2.508,0.956 2.508,2.508 0,1.551 -0.945,2.508 -2.508,2.508" /><path
           inkscape:connector-curvature="0"
           id="path412"
           style="fill:#2d2c2e;fill-opacity:1;fill-rule:nonzero;stroke:none"
           d="m 525.23335,286.9259 -0.52,0 -1.914,-4.356 -1.916,4.356 -0.521,0 2.133,-4.768 0.601,0 2.137,4.768 z" /><path
           inkscape:connector-curvature="0"
           id="path416"
           style="fill:#2d2c2e;fill-opacity:1;fill-rule:nonzero;stroke:none"
           d="m 528.40335,284.2179 2.053,2.708 -0.588,0 -1.705,-2.325 -1.682,2.325 -0.607,0 2.054,-2.708 0,-2.06 0.475,0 0,2.06 z" /></g><g
         transform="translate(160,0)"
         id="g5856"><path
           inkscape:connector-curvature="0"
           id="path420"
           style="fill:#2d2c2e;fill-opacity:1;fill-rule:nonzero;stroke:none"
           d="m 604.49125,325.7961 5.148,0 c -0.746,-1.294 -1.826,-3.162 -2.574,-4.456 -0.748,1.294 -1.826,3.162 -2.574,4.456 m 4.193,1.617 0,9.292 -16.404,0 c 0.106,0.232 0.168,0.487 0.168,0.758 0,1.016 -0.822,1.838 -1.838,1.838 -1.015,0 -1.836,-0.822 -1.836,-1.838 0,-0.271 0.063,-0.526 0.168,-0.758 l -21.965,0 0,-15.866 3.338,0 0,12.528 12.638,0 c -0.141,-0.259 -0.228,-0.552 -0.228,-0.869 0,-1.014 0.823,-1.839 1.836,-1.839 1.016,0 1.84,0.825 1.84,1.839 0,0.317 -0.088,0.61 -0.228,0.869 l 19.173,0 0,-5.954 -3.66,0.004 5.379,-9.317 5.379,9.317 -3.76,-0.004 z" /><path
           inkscape:connector-curvature="0"
           id="path424"
           style="fill:#2d2c2e;fill-opacity:1;fill-rule:nonzero;stroke:none"
           d="m 572.77045,316.2101 c 0,-1.015 0.822,-1.839 1.838,-1.839 1.014,0 1.838,0.824 1.838,1.839 0,1.015 -0.824,1.839 -1.838,1.839 -1.016,0 -1.838,-0.824 -1.838,-1.839" /><path
           inkscape:connector-curvature="0"
           id="path428"
           style="fill:#2d2c2e;fill-opacity:1;fill-rule:nonzero;stroke:none"
           d="m 577.37985,324.758 c -1.016,0 -1.838,-0.822 -1.838,-1.837 0,-1.015 0.822,-1.837 1.838,-1.837 1.016,0 1.836,0.822 1.836,1.837 0,1.015 -0.82,1.837 -1.836,1.837" /><path
           inkscape:connector-curvature="0"
           id="path432"
           style="fill:#2d2c2e;fill-opacity:1;fill-rule:nonzero;stroke:none"
           d="m 580.52445,326.1281 c 1.016,0 1.836,0.824 1.836,1.838 0,1.015 -0.82,1.838 -1.836,1.838 -1.016,0 -1.838,-0.823 -1.838,-1.838 0,-1.014 0.822,-1.838 1.838,-1.838" /><path
           inkscape:connector-curvature="0"
           id="path436"
           style="fill:#2d2c2e;fill-opacity:1;fill-rule:nonzero;stroke:none"
           d="m 594.31935,340.6174 c 0,-1.015 0.824,-1.838 1.838,-1.838 1.016,0 1.838,0.823 1.838,1.838 0,1.014 -0.822,1.837 -1.838,1.837 -1.014,0 -1.838,-0.823 -1.838,-1.837" /><path
           inkscape:connector-curvature="0"
           id="path440"
           style="fill:#2d2c2e;fill-opacity:1;fill-rule:nonzero;stroke:none"
           d="m 607.81935,314.5929 c -0.23,0 -0.395,0.192 -0.531,0.354 l -0.674,0.901 -0.609,0 0,-2.016 0.65,-0.03 0,1.031 0.039,-0.063 0.459,-0.614 c 0.184,-0.209 0.396,-0.339 0.682,-0.339 0.572,0 0.859,0.447 0.859,0.977 0,0.57 -0.355,0.979 -0.926,1.054 l -0.129,-0.668 c 0.203,-0.013 0.457,-0.082 0.457,-0.328 0,-0.162 -0.123,-0.259 -0.277,-0.259" /><path
           inkscape:connector-curvature="0"
           id="path444"
           style="fill:#2d2c2e;fill-opacity:1;fill-rule:nonzero;stroke:none"
           d="m 607.31155,312.7209 c 0.867,0 0.826,-0.209 0.826,-0.29 0,-0.082 0.041,-0.29 -0.826,-0.29 -0.773,0 -0.783,0.188 -0.783,0.29 0,0.1 0.01,0.29 0.783,0.29 m 0,-1.344 c 0.666,0 1.381,0.266 1.381,1.054 0,0.787 -0.715,1.055 -1.381,1.055 -0.658,0 -1.344,-0.299 -1.344,-1.055 0,-0.757 0.686,-1.054 1.344,-1.054" /><path
           inkscape:connector-curvature="0"
           id="path448"
           style="fill:#2d2c2e;fill-opacity:1;fill-rule:nonzero;stroke:none"
           d="m 607.31155,310.3263 c 0.867,0 0.826,-0.21 0.826,-0.289 0,-0.082 0.041,-0.291 -0.826,-0.291 -0.773,0 -0.783,0.19 -0.783,0.291 0,0.1 0.01,0.289 0.783,0.289 m 0,-1.344 c 0.666,0 1.381,0.266 1.381,1.055 0,0.787 -0.715,1.055 -1.381,1.055 -0.658,0 -1.344,-0.297 -1.344,-1.055 0,-0.758 0.686,-1.055 1.344,-1.055" /><path
           inkscape:connector-curvature="0"
           id="path452"
           style="fill:#2d2c2e;fill-opacity:1;fill-rule:nonzero;stroke:none"
           d="m 608.65525,306.6632 0,1.902 -0.664,0.059 0,-1.228 c -0.541,0.487 -1.256,0.814 -1.986,0.837 l 0,-0.875 0.158,0.007 c 0.676,0 1.469,-0.277 1.992,-0.702 l 0.5,0 z" /><path
           d="m 607.37435,306.4081 -0.611,0 0,-1.931 0.611,0 0,1.931 z"
           style="fill:#2d2c2e;fill-opacity:1;fill-rule:nonzero;stroke:none"
           id="path454"
           inkscape:connector-curvature="0" /><path
           inkscape:connector-curvature="0"
           id="path458"
           style="fill:#2d2c2e;fill-opacity:1;fill-rule:nonzero;stroke:none"
           d="m 606.00485,302.2248 0.592,0 0,0.625 2.097,0 0,0.575 c -0.253,0.154 -0.375,0.486 -0.435,0.765 l -0.6,0 c 0.026,-0.197 0.104,-0.377 0.18,-0.554 l 0.016,-0.029 -1.258,0 0,0.651 -0.592,0 0,-2.033 z" /><path
           inkscape:connector-curvature="0"
           id="path462"
           style="fill:#2d2c2e;fill-opacity:1;fill-rule:nonzero;stroke:none"
           d="m 607.38765,300.2355 c 0.082,-0.255 0.309,-0.395 0.57,-0.395 0.239,0 0.465,0.135 0.584,0.337 0.102,0.174 0.153,0.417 0.153,0.615 0,0.509 -0.262,0.932 -0.774,1.05 l -0.105,-0.641 c 0.179,-0.028 0.304,-0.148 0.304,-0.329 0,-0.152 -0.087,-0.283 -0.246,-0.283 -0.09,0 -0.17,0.048 -0.207,0.128 -0.031,0.066 -0.027,0.19 -0.027,0.263 l 0,0.221 -0.559,0 0,-0.271 c 0,-0.086 0.01,-0.206 -0.037,-0.274 -0.051,-0.074 -0.14,-0.127 -0.226,-0.127 -0.19,0 -0.28,0.157 -0.28,0.328 0,0.224 0.153,0.361 0.364,0.39 l -0.09,0.689 c -0.574,-0.138 -0.844,-0.548 -0.844,-1.126 0,-0.51 0.205,-1.049 0.799,-1.049 0.328,0 0.529,0.169 0.621,0.474" /><path
           inkscape:connector-curvature="0"
           id="path466"
           style="fill:#2d2c2e;fill-opacity:1;fill-rule:nonzero;stroke:none"
           d="m 568.07905,291.7306 c -0.125,-0.356 -0.336,-0.546 -0.721,-0.546 -0.789,0 -0.879,0.959 -0.879,1.56 0,0.299 0.041,0.714 0.153,0.999 0.133,0.35 0.342,0.546 0.726,0.546 0.35,0 0.553,-0.147 0.694,-0.469 0.138,-0.322 0.173,-0.735 0.173,-1.083 0,-0.316 -0.035,-0.714 -0.146,-1.007 m -0.721,3.475 c -1.418,0 -2.052,-1.189 -2.052,-2.461 0,-0.601 0.15,-1.224 0.502,-1.719 0.376,-0.533 0.9,-0.755 1.55,-0.755 0.651,0 1.217,0.264 1.588,0.809 0.307,0.454 0.453,1.119 0.453,1.665 0,0.581 -0.174,1.258 -0.515,1.725 -0.385,0.525 -0.889,0.736 -1.526,0.736" /><path
           inkscape:connector-curvature="0"
           id="path470"
           style="fill:#2d2c2e;fill-opacity:1;fill-rule:nonzero;stroke:none"
           d="m 572.55375,293.1994 c -0.197,-0.211 -0.42,-0.211 -0.688,-0.211 l -0.628,0 0,1.273 0.623,0 c 0.211,0 0.441,0 0.615,-0.133 0.154,-0.118 0.23,-0.315 0.23,-0.504 0,-0.154 -0.048,-0.307 -0.152,-0.425 m -0.631,1.936 -1.803,0 0,-4.795 1.118,0 0,1.775 0.72,0 c 0.512,0 0.951,-0.007 1.364,0.335 0.357,0.301 0.517,0.762 0.517,1.217 0,0.496 -0.215,0.909 -0.621,1.195 -0.398,0.273 -0.826,0.273 -1.295,0.273" /><path
           inkscape:connector-curvature="0"
           id="path474"
           style="fill:#2d2c2e;fill-opacity:1;fill-rule:nonzero;stroke:none"
           d="m 577.36225,295.1349 -1.195,0 1.439,-4.795 1.211,0 1.445,4.795 -0.943,0 -0.992,-3.426 -0.965,3.426 z" /><path
           inkscape:connector-curvature="0"
           id="path478"
           style="fill:#2d2c2e;fill-opacity:1;fill-rule:nonzero;stroke:none"
           d="m 580.34085,290.34 2.797,0 0,0.761 -1.652,0 1.58,2.133 0,0.656 -2.592,0 0,-0.713 1.431,0 -1.564,-2.076 0,-0.761 z" /><path
           inkscape:connector-curvature="0"
           id="path482"
           style="fill:#2d2c2e;fill-opacity:1;fill-rule:nonzero;stroke:none"
           d="m 585.64545,291.8215 c 0,-0.174 -0.008,-0.363 -0.09,-0.523 -0.084,-0.163 -0.26,-0.288 -0.447,-0.288 -0.512,0 -0.568,0.649 -0.568,1.036 0,0.424 0.023,1.195 0.609,1.195 0.469,0 0.496,-0.586 0.496,-0.93 l 0,-0.49 z m 1.027,-1.481 0,4.794 -1.027,0 0,-1.621 c -0.225,0.329 -0.488,0.447 -0.889,0.447 -1.033,0 -1.297,-1.041 -1.297,-1.887 0,-0.825 0.278,-1.803 1.278,-1.803 0.455,0 0.748,0.243 0.943,0.621 l 0.016,0 0,-0.551 0.976,0 z" /><path
           inkscape:connector-curvature="0"
           id="path486"
           style="fill:#2d2c2e;fill-opacity:1;fill-rule:nonzero;stroke:none"
           d="m 590.24515,295.4142 -0.719,0 -0.594,-0.398 -0.603,0.398 -0.746,0 1.349,-1.048 1.313,1.048 z" /><path
           inkscape:connector-curvature="0"
           id="path490"
           style="fill:#2d2c2e;fill-opacity:1;fill-rule:nonzero;stroke:none"
           d="m 588.96585,293.2892 c 0.447,0 0.574,-0.356 0.594,-0.741 l -1.258,0 c 0.035,0.405 0.209,0.741 0.664,0.741 m 1.621,-1.35 c 0.008,0.484 -0.068,0.988 -0.361,1.394 -0.295,0.404 -0.805,0.627 -1.301,0.627 -1.105,0 -1.727,-0.846 -1.727,-1.895 0,-1.054 0.692,-1.795 1.756,-1.795 1.201,0 1.614,1.047 1.614,1.222 l -0.952,0.07 c 0,-0.329 -0.314,-0.558 -0.629,-0.558 -0.447,0 -0.685,0.342 -0.685,0.762 l 0.006,0.173 2.279,0 z" /><path
           d="m 592.21035,295.1351 -1.027,0 0,-4.795 1.027,0 0,4.795 z"
           style="fill:#2d2c2e;fill-opacity:1;fill-rule:nonzero;stroke:none"
           id="path492"
           inkscape:connector-curvature="0" /><path
           inkscape:connector-curvature="0"
           id="path496"
           style="fill:#2d2c2e;fill-opacity:1;fill-rule:nonzero;stroke:none"
           d="m 595.02635,291.8976 c 0,-0.25 0.008,-0.46 -0.141,-0.686 -0.117,-0.18 -0.306,-0.292 -0.515,-0.292 -0.287,0 -0.455,0.189 -0.455,0.467 0,0.518 0.718,0.61 1.111,0.652 l 0,-0.141 z m -1.406,0.435 c -0.467,-0.175 -0.797,-0.533 -0.797,-1.056 0,-0.67 0.49,-1.006 1.119,-1.006 0.531,0 0.84,0.201 1.133,0.621 -0.006,-0.182 0.008,-0.37 0.049,-0.552 l 1.019,0 c -0.054,0.174 -0.068,0.35 -0.068,0.53 l 0,1.658 c 0,0.426 0.035,0.818 -0.328,1.111 -0.287,0.238 -0.762,0.322 -1.125,0.322 -0.748,0 -1.588,-0.252 -1.694,-1.112 l 0.973,-0.092 c 0,0.351 0.285,0.518 0.615,0.518 0.155,0 0.328,-0.049 0.42,-0.167 0.104,-0.133 0.09,-0.314 0.09,-0.469 l 0,-0.084 c -0.434,-0.042 -0.998,-0.069 -1.406,-0.222" /><path
           inkscape:connector-curvature="0"
           id="path500"
           style="fill:#2d2c2e;fill-opacity:1;fill-rule:nonzero;stroke:none"
           d="m 595.26465,295.4074 -1.523,-0.755 0.173,-0.42 1.586,0.574 -0.236,0.601 z" /><path
           inkscape:connector-curvature="0"
           id="path504"
           style="fill:#2d2c2e;fill-opacity:1;fill-rule:nonzero;stroke:none"
           d="m 597.53615,293.8898 -1.092,0 1.217,-3.55 0.818,0 1.209,3.55 -0.775,0 -0.693,-2.25 -0.684,2.25 z" /><path
           inkscape:connector-curvature="0"
           id="path508"
           style="fill:#2d2c2e;fill-opacity:1;fill-rule:nonzero;stroke:none"
           d="m 602.39545,295.4074 -1.525,-0.755 0.175,-0.42 1.586,0.574 -0.236,0.601 z" /><path
           inkscape:connector-curvature="0"
           id="path512"
           style="fill:#2d2c2e;fill-opacity:1;fill-rule:nonzero;stroke:none"
           d="m 602.15525,291.8976 c 0,-0.25 0.008,-0.46 -0.137,-0.686 -0.121,-0.18 -0.308,-0.292 -0.519,-0.292 -0.285,0 -0.453,0.189 -0.453,0.467 0,0.518 0.718,0.61 1.109,0.652 l 0,-0.141 z m -1.404,0.435 c -0.469,-0.175 -0.797,-0.533 -0.797,-1.056 0,-0.67 0.488,-1.006 1.119,-1.006 0.529,0 0.84,0.201 1.131,0.621 -0.006,-0.182 0.008,-0.37 0.051,-0.552 l 1.019,0 c -0.055,0.174 -0.068,0.35 -0.068,0.53 l 0,1.658 c 0,0.426 0.035,0.818 -0.328,1.111 -0.287,0.238 -0.764,0.322 -1.125,0.322 -0.75,0 -1.59,-0.252 -1.694,-1.112 l 0.971,-0.092 c 0,0.351 0.287,0.518 0.617,0.518 0.153,0 0.326,-0.049 0.418,-0.167 0.106,-0.133 0.09,-0.314 0.09,-0.469 l 0,-0.084 c -0.432,-0.042 -1,-0.069 -1.404,-0.222" /><path
           inkscape:connector-curvature="0"
           id="path516"
           style="fill:#2d2c2e;fill-opacity:1;fill-rule:nonzero;stroke:none"
           d="m 606.94435,290.34 0,2.194 c 0,0.321 0,0.769 -0.195,1.035 -0.209,0.286 -0.539,0.391 -0.875,0.391 -0.518,0 -0.811,-0.216 -1.02,-0.671 l -0.014,0 0,0.601 -0.97,0 0,-3.55 1.027,0 0,1.907 c 0,0.225 0.016,0.428 0.119,0.629 0.084,0.161 0.252,0.266 0.434,0.266 0.515,0 0.467,-0.531 0.467,-0.895 l 0,-1.907 1.027,0 z" /><path
           d="m 608.70635,293.8901 -1.027,0 0,-3.55 1.027,0 0,3.55 z"
           style="fill:#2d2c2e;fill-opacity:1;fill-rule:nonzero;stroke:none"
           id="path518"
           inkscape:connector-curvature="0" /><path
           inkscape:connector-curvature="0"
           id="path522"
           style="fill:#2d2c2e;fill-opacity:1;fill-rule:nonzero;stroke:none"
           d="m 609.00685,295.4074 -1.525,-0.756 0.177,-0.42 1.586,0.575 -0.238,0.601 z" /><path
           inkscape:connector-curvature="0"
           id="path526"
           style="fill:#2d2c2e;fill-opacity:1;fill-rule:nonzero;stroke:none"
           d="m 548.21585,283.1037 c -0.117,0.196 -0.096,0.496 -0.096,0.721 l 0,0.349 c 0,0.208 0,0.426 0.104,0.617 0.092,0.172 0.26,0.285 0.463,0.285 0.515,0 0.543,-0.734 0.543,-1.099 0,-0.361 -0.022,-1.14 -0.551,-1.14 -0.182,0 -0.363,0.115 -0.463,0.267 m 2.09,0.848 c 0,0.43 -0.041,0.858 -0.264,1.235 -0.238,0.405 -0.574,0.616 -1.049,0.616 -0.455,0 -0.734,-0.203 -0.923,-0.595 l -0.014,0 0,0.525 -0.963,0 0,-4.746 1.027,0 0,1.587 0.014,0 c 0.146,-0.315 0.469,-0.46 0.818,-0.46 1.034,0 1.354,0.964 1.354,1.838" /><path
           inkscape:connector-curvature="0"
           id="path530"
           style="fill:#2d2c2e;fill-opacity:1;fill-rule:nonzero;stroke:none"
           d="m 551.90135,283.5382 c 0,0.629 0.098,1.265 0.881,1.223 l 0,1.028 -0.176,0.014 c -0.447,0.035 -0.656,-0.357 -0.762,-0.735 l -0.013,0 0,0.664 -0.957,0 0,-3.551 1.027,0 0,1.357 z" /><path
           inkscape:connector-curvature="0"
           id="path534"
           style="fill:#2d2c2e;fill-opacity:1;fill-rule:nonzero;stroke:none"
           d="m 554.71775,285.1242 c 0.238,0 0.406,-0.09 0.49,-0.321 0.098,-0.266 0.112,-0.602 0.112,-0.881 0,-0.427 -0.028,-1.125 -0.61,-1.125 -0.586,0 -0.578,0.867 -0.578,1.271 0,0.407 0.033,1.056 0.586,1.056 m 1.705,-1.195 c 0,1.049 -0.601,1.873 -1.713,1.873 -1.082,0 -1.683,-0.804 -1.683,-1.838 0,-1.028 0.593,-1.852 1.683,-1.852 1.049,0 1.713,0.804 1.713,1.817" /><path
           inkscape:connector-curvature="0"
           id="path538"
           style="fill:#2d2c2e;fill-opacity:1;fill-rule:nonzero;stroke:none"
           d="m 561.45015,284.5226 1.012,1.209 -1.012,0 -0.986,-1.16 -0.334,-0.468 0,2.873 -1.028,0 0,-4.796 1.028,0 0,0.91 0.572,0.699 0.748,-1.609 1.152,0 -1.152,2.342 z" /><path
           inkscape:connector-curvature="0"
           id="path542"
           style="fill:#2d2c2e;fill-opacity:1;fill-rule:nonzero;stroke:none"
           d="m 564.50485,285.1242 c 0.238,0 0.406,-0.09 0.49,-0.321 0.096,-0.266 0.11,-0.602 0.11,-0.881 0,-0.427 -0.026,-1.125 -0.608,-1.125 -0.586,0 -0.578,0.867 -0.578,1.271 0,0.407 0.033,1.056 0.586,1.056 m 1.705,-1.195 c 0,1.049 -0.601,1.873 -1.713,1.873 -1.082,0 -1.683,-0.804 -1.683,-1.838 0,-1.028 0.593,-1.852 1.683,-1.852 1.049,0 1.713,0.804 1.713,1.817" /><path
           inkscape:connector-curvature="0"
           id="path546"
           style="fill:#2d2c2e;fill-opacity:1;fill-rule:nonzero;stroke:none"
           d="m 569.82325,284.3761 c 0,0.322 0,0.771 -0.195,1.035 -0.209,0.287 -0.537,0.392 -0.873,0.392 -0.52,0 -0.811,-0.217 -1.022,-0.672 l -0.014,0 0,0.601 -0.97,0 0,-3.551 1.027,0 0,1.908 c 0,0.224 0.014,0.427 0.117,0.63 0.086,0.161 0.254,0.267 0.436,0.267 0.517,0 0.469,-0.533 0.469,-0.897 l 0,-1.908 1.025,0 0,2.195 z" /><path
           inkscape:connector-curvature="0"
           id="path550"
           style="fill:#2d2c2e;fill-opacity:1;fill-rule:nonzero;stroke:none"
           d="m 572.91505,284.5226 1.012,1.209 -1.012,0 -0.986,-1.16 -0.336,-0.468 0,2.873 -1.028,0 0,-4.796 1.028,0 0,0.91 0.574,0.699 0.748,-1.609 1.152,0 -1.152,2.342 z" /><path
           inkscape:connector-curvature="0"
           id="path554"
           style="fill:#2d2c2e;fill-opacity:1;fill-rule:nonzero;stroke:none"
           d="m 577.48535,285.7316 -1.027,0 0,-1.908 c 0,-0.181 0.011,-0.384 -0.057,-0.544 -0.09,-0.21 -0.285,-0.343 -0.518,-0.343 -0.361,0 -0.388,0.273 -0.388,0.558 l 0,2.237 -1.028,0 0,-2.237 c 0,-0.342 -0.023,-0.679 0.174,-0.984 0.201,-0.322 0.51,-0.398 0.865,-0.398 0.483,0 0.848,0.23 1.014,0.677 l 0.014,0 0,-0.609 0.951,0 0,3.551 z" /><path
           inkscape:connector-curvature="0"
           id="path558"
           style="fill:#2d2c2e;fill-opacity:1;fill-rule:nonzero;stroke:none"
           d="m 579.30375,283.5382 c 0,0.629 0.098,1.265 0.881,1.223 l 0,1.028 -0.174,0.014 c -0.449,0.035 -0.658,-0.357 -0.764,-0.735 l -0.013,0 0,0.664 -0.957,0 0,-3.551 1.027,0 0,1.357 z" /><path
           inkscape:connector-curvature="0"
           id="path562"
           style="fill:#2d2c2e;fill-opacity:1;fill-rule:nonzero;stroke:none"
           d="m 582.18265,285.132 c 0.449,0 0.574,-0.357 0.596,-0.742 l -1.26,0 c 0.035,0.406 0.211,0.742 0.664,0.742 m 1.602,-1.797 -0.952,0.069 c 0,-0.328 -0.314,-0.559 -0.629,-0.559 -0.447,0 -0.685,0.343 -0.685,0.764 l 0.008,0.173 2.279,0 c 0.006,0.484 -0.07,0.986 -0.363,1.391 -0.295,0.405 -0.805,0.63 -1.303,0.63 -1.102,0 -1.725,-0.846 -1.725,-1.895 0,-1.055 0.692,-1.796 1.754,-1.796 1.202,0 1.616,1.047 1.616,1.223" /><path
           inkscape:connector-curvature="0"
           id="path566"
           style="fill:#2d2c2e;fill-opacity:1;fill-rule:nonzero;stroke:none"
           d="m 587.44045,284.3761 c 0,0.322 0,0.771 -0.195,1.035 -0.209,0.287 -0.539,0.392 -0.875,0.392 -0.518,0 -0.811,-0.217 -1.02,-0.672 l -0.014,0 0,0.601 -0.972,0 0,-3.551 1.027,0 0,1.908 c 0,0.224 0.012,0.427 0.119,0.63 0.084,0.161 0.252,0.267 0.432,0.267 0.519,0 0.471,-0.533 0.471,-0.897 l 0,-1.908 1.027,0 0,2.195 z" /><path
           inkscape:connector-curvature="0"
           id="path570"
           style="fill:#2d2c2e;fill-opacity:1;fill-rule:nonzero;stroke:none"
           d="m 591.31345,283.5168 -0.979,0.056 c -0.035,-0.328 -0.216,-0.616 -0.58,-0.616 -0.589,0 -0.595,0.616 -0.595,1.048 0,0.455 0.07,1.015 0.636,1.015 0.372,0 0.539,-0.315 0.539,-0.637 l 0.979,0.057 c -0.07,0.832 -0.729,1.363 -1.553,1.363 -1.119,0 -1.775,-0.79 -1.775,-1.881 0,-1.049 0.637,-1.809 1.713,-1.809 0.865,0 1.531,0.523 1.615,1.404" /><path
           inkscape:connector-curvature="0"
           id="path574"
           style="fill:#2d2c2e;fill-opacity:1;fill-rule:nonzero;stroke:none"
           d="m 593.50875,285.132 c 0.447,0 0.572,-0.357 0.592,-0.742 l -1.258,0 c 0.035,0.406 0.211,0.742 0.666,0.742 m 1.6,-1.797 -0.952,0.069 c 0,-0.328 -0.314,-0.559 -0.63,-0.559 -0.446,0 -0.684,0.343 -0.684,0.764 l 0.008,0.173 2.279,0 c 0.006,0.484 -0.07,0.986 -0.363,1.391 -0.295,0.405 -0.805,0.63 -1.303,0.63 -1.103,0 -1.726,-0.846 -1.726,-1.895 0,-1.055 0.693,-1.796 1.753,-1.796 1.204,0 1.618,1.047 1.618,1.223" /><path
           inkscape:connector-curvature="0"
           id="path578"
           style="fill:#2d2c2e;fill-opacity:1;fill-rule:nonzero;stroke:none"
           d="m 598.13375,282.4045 c 0.301,0.217 0.477,0.547 0.477,0.916 0,1.602 -2.131,0.847 -2.131,1.509 0,0.26 0.32,0.318 0.529,0.318 0.336,0 0.604,-0.142 0.693,-0.477 l 0.762,0.201 c -0.246,0.666 -0.701,0.93 -1.4,0.93 -0.752,0 -1.516,-0.313 -1.516,-1.187 0,-0.447 0.279,-0.81 0.699,-0.958 0.225,-0.076 0.811,-0.181 1.057,-0.209 0.187,-0.022 0.398,-0.065 0.398,-0.301 0,-0.267 -0.427,-0.337 -0.623,-0.337 -0.328,0 -0.713,0.113 -0.781,0.477 l -0.889,-0.127 c 0.19,-0.797 0.881,-1.047 1.621,-1.047 0.391,0 0.784,0.068 1.104,0.292" /><path
           inkscape:connector-curvature="0"
           id="path582"
           style="fill:#2d2c2e;fill-opacity:1;fill-rule:nonzero;stroke:none"
           d="m 602.35835,283.5168 -0.98,0.056 c -0.036,-0.328 -0.217,-0.616 -0.581,-0.616 -0.585,0 -0.593,0.616 -0.593,1.048 0,0.455 0.068,1.015 0.634,1.015 0.372,0 0.54,-0.315 0.54,-0.637 l 0.98,0.057 c -0.072,0.832 -0.729,1.363 -1.553,1.363 -1.119,0 -1.775,-0.79 -1.775,-1.881 0,-1.049 0.637,-1.809 1.713,-1.809 0.865,0 1.531,0.523 1.615,1.404" /><path
           inkscape:connector-curvature="0"
           id="path586"
           style="fill:#2d2c2e;fill-opacity:1;fill-rule:nonzero;stroke:none"
           d="m 606.02045,284.4396 c 0,0.342 0.021,0.7 -0.197,0.979 -0.207,0.272 -0.559,0.384 -0.889,0.384 -0.383,0 -0.787,-0.202 -0.92,-0.56 l -0.017,0 0,1.734 -1.026,0 0,-4.796 1.026,0 0,1.916 c 0,0.211 0,0.434 0.093,0.622 0.082,0.175 0.299,0.267 0.489,0.267 0.447,0 0.414,-0.581 0.414,-0.889 l 0,-1.916 1.027,0 0,2.259 z" /><path
           inkscape:connector-curvature="0"
           id="path590"
           style="fill:#2d2c2e;fill-opacity:1;fill-rule:nonzero;stroke:none"
           d="m 608.26265,285.1242 c 0.238,0 0.406,-0.09 0.49,-0.321 0.1,-0.266 0.112,-0.602 0.112,-0.881 0,-0.427 -0.028,-1.125 -0.606,-1.125 -0.588,0 -0.58,0.867 -0.58,1.271 0,0.407 0.033,1.056 0.584,1.056 m 1.707,-1.195 c 0,1.049 -0.6,1.873 -1.711,1.873 -1.088,0 -1.687,-0.804 -1.687,-1.838 0,-1.028 0.593,-1.852 1.687,-1.852 1.047,0 1.711,0.804 1.711,1.817" /><path
           inkscape:connector-curvature="0"
           id="path594"
           style="fill:#2d2c2e;fill-opacity:1;fill-rule:nonzero;stroke:none"
           d="m 611.68845,283.1037 c -0.117,0.196 -0.098,0.496 -0.098,0.721 l 0,0.349 c 0,0.208 0,0.426 0.104,0.617 0.092,0.172 0.262,0.285 0.463,0.285 0.517,0 0.545,-0.734 0.545,-1.099 0,-0.361 -0.02,-1.14 -0.551,-1.14 -0.182,0 -0.365,0.115 -0.463,0.267 m 2.09,0.848 c 0,0.43 -0.043,0.858 -0.266,1.235 -0.236,0.405 -0.572,0.616 -1.047,0.616 -0.455,0 -0.734,-0.203 -0.923,-0.595 l -0.014,0 0,0.525 -0.965,0 0,-4.746 1.027,0 0,1.587 0.016,0 c 0.146,-0.315 0.467,-0.46 0.816,-0.46 1.036,0 1.356,0.964 1.356,1.838" /><path
           inkscape:connector-curvature="0"
           id="path598"
           style="fill:#2d2c2e;fill-opacity:1;fill-rule:nonzero;stroke:none"
           d="m 617.35835,284.3761 c 0,0.322 0,0.771 -0.195,1.035 -0.209,0.287 -0.539,0.392 -0.875,0.392 -0.518,0 -0.811,-0.217 -1.02,-0.672 l -0.014,0 0,0.601 -0.97,0 0,-3.551 1.025,0 0,1.908 c 0,0.224 0.016,0.427 0.117,0.63 0.086,0.161 0.254,0.267 0.436,0.267 0.517,0 0.467,-0.533 0.467,-0.897 l 0,-1.908 1.029,0 0,2.195 z" /><path
           inkscape:connector-curvature="0"
           id="path602"
           style="fill:#2d2c2e;fill-opacity:1;fill-rule:nonzero;stroke:none"
           d="m 619.58695,285.1242 c 0.24,0 0.406,-0.09 0.49,-0.321 0.098,-0.266 0.114,-0.602 0.114,-0.881 0,-0.427 -0.03,-1.125 -0.61,-1.125 -0.586,0 -0.582,0.867 -0.582,1.271 0,0.407 0.037,1.056 0.588,1.056 m 1.707,-1.195 c 0,1.049 -0.6,1.873 -1.713,1.873 -1.084,0 -1.683,-0.804 -1.683,-1.838 0,-1.028 0.593,-1.852 1.683,-1.852 1.049,0 1.713,0.804 1.713,1.817" /><path
           inkscape:connector-curvature="0"
           id="path606"
           style="fill:#2d2c2e;fill-opacity:1;fill-rule:nonzero;stroke:none"
           d="m 624.27835,282.4045 c 0.301,0.217 0.475,0.547 0.475,0.916 0,1.602 -2.131,0.847 -2.131,1.509 0,0.26 0.322,0.318 0.531,0.318 0.336,0 0.602,-0.142 0.693,-0.477 l 0.762,0.201 c -0.246,0.666 -0.699,0.93 -1.398,0.93 -0.756,0 -1.516,-0.313 -1.516,-1.187 0,-0.447 0.277,-0.81 0.697,-0.958 0.223,-0.076 0.811,-0.181 1.057,-0.209 0.189,-0.022 0.398,-0.065 0.398,-0.301 0,-0.267 -0.427,-0.337 -0.621,-0.337 -0.33,0 -0.715,0.113 -0.785,0.477 l -0.887,-0.127 c 0.188,-0.797 0.879,-1.047 1.621,-1.047 0.393,0 0.784,0.068 1.104,0.292" /><path
           inkscape:connector-curvature="0"
           id="path610"
           style="fill:#2d2c2e;fill-opacity:1;fill-rule:nonzero;stroke:none"
           d="m 627.43845,282.1877 0,0.777 -0.32,-0.013 c -0.496,-0.022 -0.496,0.146 -0.496,0.558 l 0,1.412 0.761,0 0,0.819 -0.761,0 0,1.111 -0.895,-0.071 -0.092,-1.04 -0.623,0 0,-0.819 0.58,0 0,-1.566 c 0,-0.35 0,-0.774 0.285,-1.013 0.233,-0.188 0.625,-0.229 0.918,-0.229 0.19,0 0.377,0.031 0.575,0.061 l 0.068,0.013 z" /><path
           inkscape:connector-curvature="0"
           id="path614"
           style="fill:#2d2c2e;fill-opacity:1;fill-rule:nonzero;stroke:none"
           d="m 566.05765,310.5246 c 0.746,1.295 1.824,3.161 2.572,4.458 0.746,-1.297 1.824,-3.163 2.574,-4.458 l -5.146,0 z m 38.057,-7.557 -33.768,0 0,5.94 0.002,0 3.662,-0.003 -5.381,9.318 -5.379,-9.318 3.758,0.003 0,-9.279 37.106,0 0,3.339 z" /></g><g
         transform="translate(83.623373,0)"
         id="g5909"><path
           d="m 301.00135,259.5161 0.895,0 0,9.393 -0.895,0 0,-9.393 z"
           style="fill:#2d2c2e;fill-opacity:1;fill-rule:nonzero;stroke:none"
           id="path616"
           inkscape:connector-curvature="0" /><path
           inkscape:connector-curvature="0"
           id="path620"
           style="fill:#2d2c2e;fill-opacity:1;fill-rule:nonzero;stroke:none"
           d="m 310.34035,260.964 -0.026,0 -5.473,7.945 -1,0 0,-9.393 0.894,0 0,7.945 0.026,0 5.474,-7.945 1,0 0,9.393 -0.895,0 0,-7.945 z" /><path
           inkscape:connector-curvature="0"
           id="path624"
           style="fill:#2d2c2e;fill-opacity:1;fill-rule:nonzero;stroke:none"
           d="m 316.11325,260.5031 -0.026,0 -3.052,8.406 -0.961,0 3.486,-9.393 1.04,0 3.486,9.393 -0.948,0 -3.025,-8.406 z" /><path
           inkscape:connector-curvature="0"
           id="path628"
           style="fill:#2d2c2e;fill-opacity:1;fill-rule:nonzero;stroke:none"
           d="m 321.80665,263.9865 5.236,0 0,0.765 -5.236,0 0,3.394 5.592,0 0,0.764 -6.487,0 0,-9.394 6.552,0 0,0.763 -5.657,0 0,3.708 z" /><path
           inkscape:connector-curvature="0"
           id="path632"
           style="fill:#2d2c2e;fill-opacity:1;fill-rule:nonzero;stroke:none"
           d="m 333.14455,264.4748 -2.288,0.565 c -0.764,0.186 -1.422,0.554 -1.422,1.435 0,1.396 1.132,1.869 2.355,1.869 1.33,0 2.513,-0.723 2.565,-2.158 l 0.895,0 c 0.013,1.921 -1.617,2.922 -3.474,2.922 -2.643,0 -3.235,-1.727 -3.235,-2.646 0,-1.46 1.013,-1.987 2.119,-2.262 l 2.091,-0.513 c 0.868,-0.212 1.933,-0.633 1.933,-1.699 0,-1.367 -1.499,-1.907 -2.485,-1.907 -1.71,0 -3.106,0.592 -3.066,2.527 l -0.895,0 c -0.104,-2.29 1.527,-3.289 3.75,-3.289 3.328,0 3.591,2.039 3.591,2.682 0,1.538 -1.105,2.12 -2.434,2.474" /><path
           inkscape:connector-curvature="0"
           id="path636"
           style="fill:#2d2c2e;fill-opacity:1;fill-rule:nonzero;stroke:none"
           d="m 335.98385,268.1457 3.277,0 0,-8.63 0.894,0 0,8.63 3.276,0 0,0.764 -7.447,0 0,-0.764 z" /><path
           d="m 344.37635,259.5161 0.894,0 0,9.393 -0.894,0 0,-9.393 z"
           style="fill:#2d2c2e;fill-opacity:1;fill-rule:nonzero;stroke:none"
           id="path638"
           inkscape:connector-curvature="0" /><path
           inkscape:connector-curvature="0"
           id="path642"
           style="fill:#2d2c2e;fill-opacity:1;fill-rule:nonzero;stroke:none"
           d="m 351.21585,260.0822 c -2.487,0 -3.54,2.078 -3.54,4.13 0,2.052 1.053,4.132 3.54,4.132 1.368,0 2.564,-0.83 2.881,-2.276 l 0.895,0 c -0.237,1.973 -2.001,3.038 -3.776,3.038 -2.959,0 -4.434,-2.329 -4.434,-4.894 0,-2.566 1.475,-4.894 4.434,-4.894 2.197,0 3.657,1.473 3.907,3.775 l -0.894,0 c -0.172,-1.67 -1.277,-3.011 -3.013,-3.011" /><path
           inkscape:connector-curvature="0"
           id="path646"
           style="fill:#2d2c2e;fill-opacity:1;fill-rule:nonzero;stroke:none"
           d="m 357.38235,263.9865 5.236,0 0,0.765 -5.236,0 0,3.394 5.592,0 0,0.764 -6.487,0 0,-9.394 6.553,0 0,0.763 -5.658,0 0,3.708 z" /><path
           inkscape:connector-curvature="0"
           id="path650"
           style="fill:#2d2c2e;fill-opacity:1;fill-rule:nonzero;stroke:none"
           d="m 370.74465,260.2785 -1.907,0 0,7.867 1.907,0 c 2.699,0.014 3.87,-1.132 3.87,-3.932 0,-2.804 -1.171,-3.949 -3.87,-3.935 m 0.448,8.631 -3.249,0 0,-9.394 3.249,0 c 2.829,0.065 4.316,1.618 4.316,4.698 0,3.077 -1.487,4.629 -4.316,4.696" /><path
           inkscape:connector-curvature="0"
           id="path654"
           style="fill:#2d2c2e;fill-opacity:1;fill-rule:nonzero;stroke:none"
           d="m 380.88575,260.0822 c -2.487,0 -3.54,2.079 -3.54,4.131 0,2.052 1.053,4.13 3.54,4.13 2.473,0 3.526,-2.078 3.526,-4.13 0,-2.052 -1.053,-4.131 -3.526,-4.131 m 0,9.024 c -2.96,0 -4.434,-2.328 -4.434,-4.893 0,-2.566 1.474,-4.895 4.434,-4.895 2.947,0 4.421,2.329 4.421,4.895 0,2.565 -1.474,4.893 -4.421,4.893" /><path
           inkscape:connector-curvature="0"
           id="path658"
           style="fill:#2d2c2e;fill-opacity:1;fill-rule:nonzero;stroke:none"
           d="m 394.59035,264.4504 -3.342,0 0,3.695 3.342,0 c 1.343,0 2.026,-0.724 2.026,-1.869 0,-1.145 -0.935,-1.826 -2.026,-1.826 m 1.091,-0.408 0,0.026 c 1.211,0.236 1.829,1.21 1.829,2.394 0,1.697 -1.302,2.447 -2.855,2.447 l -4.301,0 0,-9.394 0.894,0 0,4.17 3.395,0 c 1.697,0.067 1.801,-1.393 1.881,-2.71 0.027,-0.394 0.027,-1.091 0.251,-1.46 l 0.985,0 c -0.394,0.474 -0.394,1.763 -0.432,2.408 -0.069,1.118 -0.423,1.96 -1.647,2.119" /><path
           inkscape:connector-curvature="0"
           id="path662"
           style="fill:#2d2c2e;fill-opacity:1;fill-rule:nonzero;stroke:none"
           d="m 403.06055,260.0822 c -2.488,0 -3.54,2.079 -3.54,4.131 0,2.052 1.052,4.13 3.54,4.13 2.472,0 3.526,-2.078 3.526,-4.13 0,-2.052 -1.054,-4.131 -3.526,-4.131 m 0,9.024 c -2.959,0 -4.434,-2.328 -4.434,-4.893 0,-2.566 1.475,-4.895 4.434,-4.895 2.947,0 4.42,2.329 4.42,4.895 0,2.565 -1.473,4.893 -4.42,4.893" /><path
           inkscape:connector-curvature="0"
           id="path666"
           style="fill:#2d2c2e;fill-opacity:1;fill-rule:nonzero;stroke:none"
           d="m 415.17285,268.1203 0,0.789 -6.761,0 0,-0.764 5.764,0 -6.185,-7.84 0,-0.789 7.313,0 0,0.762 -6.313,0 6.182,7.842 z" /><path
           inkscape:connector-curvature="0"
           id="path670"
           style="fill:#2d2c2e;fill-opacity:1;fill-rule:nonzero;stroke:none"
           d="m 419.42085,260.5031 -0.027,0 -3.053,8.406 -0.959,0 3.484,-9.393 1.041,0 3.487,9.393 -0.949,0 -3.024,-8.406 z" /><path
           inkscape:connector-curvature="0"
           id="path674"
           style="fill:#2d2c2e;fill-opacity:1;fill-rule:nonzero;stroke:none"
           d="m 428.15135,260.0822 c -2.485,0 -3.539,2.079 -3.539,4.131 0,2.052 1.054,4.13 3.539,4.13 2.475,0 3.527,-2.078 3.527,-4.13 0,-2.052 -1.052,-4.131 -3.527,-4.131 m 0,9.024 c -2.958,0 -4.432,-2.328 -4.432,-4.893 0,-2.566 1.474,-4.895 4.432,-4.895 2.949,0 4.421,2.329 4.421,4.895 0,2.565 -1.472,4.893 -4.421,4.893" /><path
           inkscape:connector-curvature="0"
           id="path678"
           style="fill:#2d2c2e;fill-opacity:1;fill-rule:nonzero;stroke:none"
           d="m 437.75385,262.5158 c 0,-1.724 -0.369,-2.434 -1.763,-2.434 -1.856,0 -1.776,1.644 -1.802,2.447 l -0.896,0 c -0.014,-1.631 0.461,-3.21 2.618,-3.21 2.027,0 2.737,0.907 2.737,2.814 l 0,6.777 -0.894,0 0,-6.394 z" /><path
           inkscape:connector-curvature="0"
           id="path682"
           style="fill:#2d2c2e;fill-opacity:1;fill-rule:nonzero;stroke:none"
           d="m 441.43555,263.9865 5.235,0 0,0.765 -5.235,0 0,3.394 5.591,0 0,0.764 -6.486,0 0,-9.394 6.551,0 0,0.763 -5.656,0 0,3.708 z" /><path
           inkscape:connector-curvature="0"
           id="path686"
           style="fill:#2d2c2e;fill-opacity:1;fill-rule:nonzero;stroke:none"
           d="m 458.02045,268.9093 -3.024,-8.406 -0.028,0 -3.052,8.406 -0.96,0 3.488,-9.394 1.037,0 3.486,9.394 -0.947,0 z" /><path
           inkscape:connector-curvature="0"
           id="path690"
           style="fill:#2d2c2e;fill-opacity:1;fill-rule:nonzero;stroke:none"
           d="m 466.09665,268.1203 0,0.789 -6.765,0 0,-0.764 5.764,0 -6.184,-7.84 0,-0.789 7.316,0 0,0.762 -6.314,0 6.183,7.842 z" /><path
           inkscape:connector-curvature="0"
           id="path694"
           style="fill:#2d2c2e;fill-opacity:1;fill-rule:nonzero;stroke:none"
           d="m 470.14545,260.2785 -1.907,0 0,7.867 1.907,0 c 2.696,0.014 3.869,-1.132 3.869,-3.932 0,-2.804 -1.173,-3.949 -3.869,-3.935 m 0.448,8.631 -3.251,0 0,-9.394 3.251,0 c 2.827,0.065 4.315,1.618 4.315,4.698 0,3.077 -1.488,4.629 -4.315,4.696" /><path
           inkscape:connector-curvature="0"
           id="path698"
           style="fill:#2d2c2e;fill-opacity:1;fill-rule:nonzero;stroke:none"
           d="m 478.68265,270.8166 -0.896,0 1.5,-1.396 0.987,0 1.501,1.396 -0.802,0 -1.158,-0.96 -1.132,0.96 z" /><path
           inkscape:connector-curvature="0"
           id="path702"
           style="fill:#2d2c2e;fill-opacity:1;fill-rule:nonzero;stroke:none"
           d="m 477.24605,263.9865 5.238,0 0,0.765 -5.238,0 0,3.394 5.592,0 0,0.764 -6.485,0 0,-9.394 6.551,0 0,0.763 -5.658,0 0,3.708 z" /><path
           inkscape:connector-curvature="0"
           id="path706"
           style="fill:#2d2c2e;fill-opacity:1;fill-rule:nonzero;stroke:none"
           d="m 494.43845,269.4211 1.734,1.396 -1.061,0 -1.383,-1.396 0.71,0 z" /><path
           inkscape:connector-curvature="0"
           id="path710"
           style="fill:#2d2c2e;fill-opacity:1;fill-rule:nonzero;stroke:none"
           d="m 492.54395,263.1984 1.881,4.817 1.814,-4.817 -3.695,0 z m 1.42,5.711 -3.655,-9.062 0,0.431 -5.264,0 0,8.631 -0.893,0 0,-9.394 6.023,0 0.134,0 0.826,0 1.132,2.92 4.275,0 1.146,-2.92 0.96,0 -3.685,9.394 -0.999,0 z" /><path
           inkscape:connector-curvature="0"
           id="path714"
           style="fill:#2d2c2e;fill-opacity:1;fill-rule:nonzero;stroke:none"
           d="m 504.87105,268.9093 -3.026,-8.406 -0.028,0 -3.052,8.406 -0.958,0 3.486,-9.394 1.039,0 3.485,9.394 -0.946,0 z" /><path
           inkscape:connector-curvature="0"
           id="path718"
           style="fill:#2d2c2e;fill-opacity:1;fill-rule:nonzero;stroke:none"
           d="m 509.14455,269.4211 1.736,1.396 -1.066,0 -1.382,-1.396 0.712,0 z" /><path
           inkscape:connector-curvature="0"
           id="path722"
           style="fill:#2d2c2e;fill-opacity:1;fill-rule:nonzero;stroke:none"
           d="m 507.25095,263.1984 1.88,4.817 1.817,-4.817 -3.697,0 z m 1.42,5.711 -3.79,-9.394 0.96,0 1.134,2.92 4.275,0 1.143,-2.92 0.962,0 -3.684,9.394 -1,0 z" /><path
           inkscape:connector-curvature="0"
           id="path726"
           style="fill:#2d2c2e;fill-opacity:1;fill-rule:nonzero;stroke:none"
           d="m 520.69235,260.964 -0.025,0 -5.474,7.945 -1,0 0,-9.393 0.894,0 0,7.945 0.027,0 5.474,-7.945 1,0 0,9.393 -0.896,0 0,-7.945 z" /><path
           d="m 523.53235,259.5161 0.894,0 0,9.394 -0.894,0 0,-9.394 z"
           style="fill:#2d2c2e;fill-opacity:1;fill-rule:nonzero;stroke:none"
           id="path728"
           inkscape:connector-curvature="0" /><path
           inkscape:connector-curvature="0"
           id="path732"
           style="fill:#2d2c2e;fill-opacity:1;fill-rule:nonzero;stroke:none"
           d="m 523.40035,269.4211 0.708,0 1.739,1.396 -1.066,0 -1.381,-1.396 z" /></g></g></g></svg>